<svg xmlns="http://www.w3.org/2000/svg" version="1.1" viewBox="0 0 3000 3000" width="3000" height="3000">
<!--ITEM 1--><g><defs><clipPath id="clip-path-id-viewbox-item-1"><rect x="0.0" y="0.0" width="229.667" height="314.196"/></clipPath></defs><g transform="translate(278.0 1028.0) rotate(0.0 668.0 916.5) scale(5.8171178271149095 5.833938051407401)"><g clip-path="url(#clip-path-id-viewbox-item-1)" transform="translate(-0.0 -0.0)"><g>
	<g>
		<g>
			<path style="fill:#FF2E93;" d="M176.643,92.912c2.694-1.366,5.684-1.481,8.324-0.567c3.016,1.044,8.266,6.168,16.383,6.457     c2.045,0.14,5.538,0.196,8.114,0.235c0.531,0.103,4.711,3.991,5.782,6.102c2.805,5.53,0.596,12.286-4.933,15.092     c-1.999,1.014-4.157,1.364-6.232,1.148c-0.078,0.004-0.156,0.017-0.233,0.007c-0.196-0.036-0.375-0.084-0.566-0.124     c-0.299-0.053-0.596-0.117-0.889-0.194c-0.143-0.036-0.278-0.077-0.418-0.115c-0.091-0.027-0.183-0.05-0.273-0.08     c-7.015-2.006-10.019-6.66-15.462-8.866c-0.089,0.045-0.187,0.095-0.281,0.131l-0.009,0.005     c-2.163,0.997-4.487,1.211-6.659,0.754c-3.063-0.644-5.816-2.623-7.34-5.628C169.281,102.006,171.382,95.581,176.643,92.912z"/>
		</g>
	</g>
	<g>
		<g>
			<path style="fill:#FF2E93;" d="M195.222,115.297c-2.805-5.53-0.596-12.286,4.933-15.092c2.596-1.317,8.761-1.182,9.168-1.176     c8.259,0.131,17.67,0.526,19.867,5.048c3.598,7.403-14.078,17.872-21.579,17.652c-1.351-0.04-2.577-0.158-3.705-0.336     c-0.038-0.006-0.067-0.029-0.102-0.042C200.244,120.891,196.968,118.738,195.222,115.297z"/>
		</g>
	</g>
	<g>
		<g>
			<path style="fill:#FF2E93;" d="M183.866,98.42c-0.802-1.582-0.628-3.403,0.315-4.764c0.081-0.117,0.576-0.698,1.126-1.175     c0.103-0.089,0.205-0.177,0.323-0.248c0.111-0.067,0.223-0.113,0.339-0.172c0.179-0.091,0.361-0.172,0.544-0.254     c1.343-0.625,2.628-1.12,3.704-1.475c3.365-1.124,9.03-2.999,12.806-2.762c1.494,0.094,2.691,0.508,3.344,1.421     c1.664,2.285-0.985,5.153-5.069,7.404l-0.071,0.036c-0.125,0.063-0.254,0.14-0.379,0.203c-1.026,0.543-0.73,2.075,0.424,2.162     c0.022,0,0.058,0.004,0.08,0.004c-6.022,0.907-9.685,2.058-12.416,2.102C186.928,101.277,184.836,100.332,183.866,98.42z"/>
		</g>
	</g>
	<g>
		<path style="fill:#00E6B3;" d="M126.317,212.125c-0.02,3.01-0.111,6.221-0.33,9.58c-1.239,19.023-7.66,66.5-8.61,73.74    c-0.38,2.97-25.08-2.33-25.08-5.33l-1.36-68.41l-0.19-9.58H126.317z"/>
	</g>
	<g>
		<path style="fill:#00E6B3;" d="M71.939,212.125c-0.02,3.01-0.111,6.221-0.33,9.58c-1.239,19.023-7.66,66.5-8.61,73.74    c-0.38,2.97-25.08-2.33-25.08-5.33l-1.36-68.41l-0.19-9.58H71.939z"/>
	</g>
	<g>
		<path style="fill:#142664;" d="M133.233,128.667c0,0,0.044,6.857-0.104,18.929c-0.219,17.88-0.698,46.009-1.07,70.566    c-0.017,1.093-0.907,1.963-2,1.963H35.337c-1.093,0-1.983-0.87-2-1.963c-0.623-41.138-1.34-89.367-1.34-89.367L133.233,128.667z"/>
	</g>
	<g>
		<path style="fill:#FF2E93;" d="M34.994,179.992c-2.7,9.6-36.2,7.1-31.2-24.8l29.15-2.59l0.15-0.01c0,0,3.01,6.38,3.3,15.33    C36.524,171.592,36.184,175.712,34.994,179.992z"/>
	</g>
	<g>
		<path style="fill:#142664;" d="M196.905,103.22c-0.845-9.588-1.256-16.883-10.644-16.041c-3.094,0.271-8.188,0.414-14.178,0.465    c-5.438,0.047-10.036-3.978-10.753-9.369c-0.039-0.293-0.076-0.587-0.11-0.882c-2.959-25.464-9.562-46.675-12.422-55.03    c-0.806-2.356-2.808-4.098-5.25-4.58c-6.5-1.283-19.522-3.888-26.205-5.466c-0.903-0.213-1.686-0.763-2.191-1.542    c-1.484-2.287-3.494-5.713-4.795-7.634c-0.768-1.134-1.97-1.498-2.954-1.615C93.031-0.192,78.662-0.57,64.298,0.981    c-0.941,0.102-1.794,0.589-2.365,1.343c-1.265,1.67-3.584,4.758-5.058,6.871c-0.547,0.784-1.372,1.314-2.313,1.482    c-7.544,1.351-21.108,3.848-27.383,5.006c-2.132,0.393-3.949,1.754-4.929,3.688c-3.232,6.376-10.561,21.288-13.606,31.207    C1.865,72.661-2.171,103.996,1.229,151.796c0.7,9.4,9.1,8.7,18.7,8c9.6-0.7,16.9-1,16.2-10.4c0-0.6-0.1-1.2-0.1-1.8h97.1    c0,0,0.031-23.2,0.136-35.854c0.006-0.677,0.893-0.916,1.246-0.338c8.502,13.918,29.454,12.815,54.678,10.636    C198.578,121.197,197.75,112.809,196.905,103.22z"/>
	</g>
	<g>
		<path style="fill:#142664;" d="M108.975,2.136l-31.07,58.74l-71.06-3.97c0.58-2.19,1.18-4.3,1.8-6.33    c3.04-9.91,10.36-24.8,13.59-31.19c0.99-1.94,2.82-3.31,4.96-3.71c6.28-1.15,19.81-3.65,27.35-5c0.95-0.17,1.78-0.7,2.34-1.49    c1.47-2.11,3.77-5.17,5.04-6.85c0.57-0.76,1.44-1.25,2.39-1.36c14.36-1.55,28.72-1.17,43.09,0.55    C107.975,1.596,108.515,1.806,108.975,2.136z"/>
	</g>
	<g>
		<path style="fill:#FFFFFF;" d="M39.929,59.096c-1.6,5.4-3.3,12.4-4.6,21c-1,6.3-1.8,13.4-2.2,21.3c-0.2,4.1-0.3,8.4-0.3,12.9    c0,9.1,0.5,19.1,1.4,29.9c0.1,0.9,0.9,1.6,1.8,1.5s1.6-0.9,1.5-1.8c-0.6-11.1-0.6-21.3-0.4-30.5c0.1-4.3,0.3-8.3,0.5-12.2    c0.2-2.8,0.3-5.5,0.5-8.1c1.1-14.3,2.9-25.4,5-33.3c0.2-0.9-0.3-1.8-1.1-2.1C41.129,57.696,40.129,58.196,39.929,59.096    L39.929,59.096z"/>
	</g>
	<g>
		<path style="fill:#FFFFFF;" d="M87.138,35.439l-3.729-13.613c-0.515-1.881-2.056-3.298-3.975-3.648    c-4.8-0.873-13.721-2.472-16.622-2.827c-0.445-0.054-0.798-0.383-0.9-0.819c-0.446-1.906-0.581-3.173-0.256-4.957    c0.827-4.536,10.47-5.35,27.15-5.35c16.67,0,19.98,0.921,21.764,5.308c0.754,1.853,1.022,3.33,0.669,4.705    c-0.103,0.402-0.416,0.717-0.823,0.803c-2.696,0.574-10.421,2.059-14.909,2.917c-2.022,0.386-3.607,1.956-4.015,3.974    l-2.723,13.451C88.593,36.25,87.371,36.291,87.138,35.439z"/>
	</g>
	<g>
		<g>
			<circle style="fill:#00E6B3;" cx="98.909" cy="26.401" r="2.5"/>
		</g>
	</g>
	<g>
		<g>
			<circle style="fill:#00E6B3;" cx="78.412" cy="144.106" r="2.5"/>
		</g>
	</g>
	<g>
		<g>
			<circle style="fill:#00E6B3;" cx="72.287" cy="90.976" r="2.5"/>
		</g>
	</g>
	<g>
		<g>
			<circle style="fill:#00E6B3;" cx="54.154" cy="159.036" r="2.5"/>
		</g>
	</g>
	<g>
		<g>
			<path style="fill:#00E6B3;" d="M59.34,7.402c0,0-0.024,0.042-0.071,0.126c-0.048,0.081-0.117,0.207-0.194,0.389     c-0.155,0.355-0.409,0.888-0.523,1.719c-0.078,0.379-0.065,0.942-0.021,1.372c0.039,0.433,0.134,0.918,0.282,1.447     c0.303,1.055,1.092,2.305,2.255,3.134c1.155,0.822,2.474,1.272,3.781,1.598c1.318,0.33,2.665,0.547,4.043,0.804     c2.74,0.501,5.642,1.159,8.154,2.733c2.237,1.375,4.251,3.654,5.668,6.363c0.72,1.359,1.286,2.85,1.735,4.41     c0.231,0.778,0.412,1.583,0.582,2.395c0.075,0.41,0.159,0.817,0.22,1.233l0.097,0.623l0.101,0.74     c0.124,0.98,0.637,1.977,1.499,2.641c0.428,0.33,0.93,0.583,1.474,0.716c0.245,0.069,0.617,0.109,0.738,0.127l0.434,0.059     c4.68,0.612,9.633,0.978,14.223,1.239c7.013,0.463,13.542,0.818,18.169,1.236c2.286,0.195,4.155,0.524,5.403,0.662     c0.626,0.077,1.099,0.135,1.399,0.172c0.345,0.04,0.277,0.018,0.288,0.01c0.229,0.025,0.392,0.2,0.437,0.373     c0.135,0.565,0.253,1.06,0.357,1.493c0.23,0.963,0.395,1.65,0.511,2.137c0.236,0.974,0.279,1.151,0.279,1.151     c0.706,3.125,1.966,5.144,2.787,5.063c0.912-0.134,0.933-2.891,0.317-5.672c0,0-0.042-0.187-0.268-1.185     c-0.114-0.499-0.275-1.2-0.499-2.182c-0.125-0.536-0.269-1.148-0.433-1.848c-0.306-1.11-1.298-2.23-2.775-2.487     c0.133,0.013-0.196-0.052-0.458-0.104c-0.309-0.057-0.792-0.146-1.429-0.263c-1.284-0.206-3.145-0.606-5.535-0.891     c-4.715-0.581-11.156-1.103-18.007-1.714c-4.602-0.465-9.207-0.805-14.027-1.411l-0.668-0.09l-0.005-0.001l-0.008-0.007     l-0.083-0.583l-0.112-0.691c-0.072-0.46-0.169-0.918-0.258-1.375c-0.197-0.911-0.414-1.816-0.686-2.703     c-0.534-1.776-1.215-3.5-2.082-5.109c-1.748-3.219-4.141-5.954-7.08-7.774c-3.259-2.012-6.721-2.674-9.563-3.125     c-2.845-0.432-5.339-0.755-6.57-1.548c-0.626-0.368-0.9-0.792-1.116-1.29c-0.198-0.491-0.273-1.133-0.261-1.362     c0.029-0.322,0.104-0.613,0.194-0.812c0.069-0.199,0.132-0.308,0.132-0.308c0.574-1.061,1.366-2.072,1.851-2.898     c0.494-0.819,0.754-1.518,0.522-1.869c-0.318-0.385-1.072-0.369-2.104,0.125C61.435,4.884,60.17,5.828,59.34,7.402z"/>
		</g>
	</g>
	<g>
		<path style="fill:#00E6B3;" d="M53.581,221.826c-1.104,0-2-0.896-2-2v-48.694c0-1.104,0.896-2,2-2s2,0.896,2,2v48.694    C55.581,220.93,54.686,221.826,53.581,221.826z"/>
	</g>
	<g>
		<path style="fill:#00E6B3;" d="M66.484,222.662c-1.104,0-2-0.896-2-2v-90.958c0-1.104,0.896-2,2-2h3.801V103.85    c0-1.104,0.896-2,2-2s2,0.896,2,2v25.854c0,1.104-0.896,2-2,2h-3.801v88.958C68.484,221.766,67.588,222.662,66.484,222.662z"/>
	</g>
	<g>
		<path style="fill:#00E6B3;" d="M76.87,193.136H66.48c-1.104,0-2-0.896-2-2s0.896-2,2-2h8.39v-14.98c0-1.104,0.896-2,2-2h7.32    c1.104,0,2,0.896,2,2s-0.896,2-2,2h-5.32v14.98C78.87,192.24,77.974,193.136,76.87,193.136z"/>
	</g>
	<g>
		<path style="fill:#00E6B3;" d="M53.58,182.646H43.34c-1.104,0-2-0.896-2-2v-27.95c0-1.104,0.896-2,2-2s2,0.896,2,2v25.95h8.24    c1.104,0,2,0.896,2,2S54.684,182.646,53.58,182.646z"/>
	</g>
	<g>
		<path style="fill:#00E6B3;" d="M66.484,206.935H53.581c-1.104,0-2-0.896-2-2s0.896-2,2-2h12.902c1.104,0,2,0.896,2,2    S67.588,206.935,66.484,206.935z"/>
	</g>
	<g>
		<path style="fill:#142664;" d="M137.297,311.596c-1.1,1.6-2.9,2.6-4.8,2.6h-19.65c-4.76,0-5.88-8-10.66-8    c-0.71,0-0.56,1.25-0.79,3.5c-0.04,0.42-0.1,0.84-0.18,1.25c0,0.03-0.01,0.06-0.02,0.09c-0.52,1.67-1.979,3.083-3.78,3.13    c-1.232,0.032-2.34-0.34-3.2-0.86c-1.11-0.82-1.82-2.13-1.82-3.61c-0.1-7.22-0.1-19.7-0.1-19.7s17.8-3.1,29.5,0    c8.7,2.3,13.6,10,16.1,16.1C138.597,307.895,138.397,309.895,137.297,311.596z"/>
	</g>
	<g>
		<path style="fill:#142664;" d="M82.913,311.596c-1.1,1.6-2.9,2.6-4.8,2.6h-19.65c-4.76,0-5.88-8-10.66-8    c-0.71,0-0.56,1.25-0.79,3.5c-0.04,0.42-0.1,0.84-0.18,1.25c0,0.03-0.01,0.06-0.02,0.09c-0.52,1.67-1.979,3.083-3.78,3.13    c-1.232,0.032-2.34-0.34-3.2-0.86c-1.11-0.82-1.82-2.13-1.82-3.61c-0.1-7.22-0.1-19.7-0.1-19.7s17.8-3.1,29.5,0    c8.7,2.3,13.6,10,16.1,16.1C84.213,307.895,84.013,309.895,82.913,311.596z"/>
	</g>
	<g>
		<path style="fill:#00E6B3;" d="M72.288,113.066h-10.05c-1.104,0-2-0.896-2-2v-20.09c0-1.104,0.896-2,2-2s2,0.896,2,2v18.09h8.05    c1.104,0,2,0.896,2,2S73.392,113.066,72.288,113.066z"/>
	</g>
	<g>
		<path style="fill:#00E6B3;" d="M90.337,158.535h-23.85c-1.104,0-2-0.896-2-2s0.896-2,2-2h21.85v-11.43c0-1.104,0.896-2,2-2    s2,0.896,2,2v13.43C92.337,157.64,91.442,158.535,90.337,158.535z"/>
	</g>
	<g>
		<g>
			<path style="fill:#FFFFFF;" d="M131.792,63.924c0,0-0.096,4.881-0.182,11.499c0.018,3.473-0.031,7.478,0.02,11.467     c0.042,2.253,0.095,4.677,0.238,6.914c0.359,8.806,0.72,16.048,0.72,16.048c-0.002,1.564,0.782,2.657,1.6,2.701     c0.919,0.029,1.549-1.287,1.562-2.68c0,0,0.144-7.322,0.199-16.02c0.059-2.268,0.017-4.521-0.036-6.946     c-0.051-3.989-0.203-7.962-0.322-11.419c-0.216-6.57-0.535-11.559-0.535-11.559c0.002-1.564-0.782-2.657-1.6-2.702     C132.435,61.216,131.704,62.548,131.792,63.924z"/>
		</g>
	</g>
</g>
</g></g></g><!--ITEM 2--><g><defs><clipPath id="clip-path-id-viewbox-item-2"><rect x="0.0" y="0.0" width="257.883" height="312.212"/></clipPath></defs><g transform="translate(569.0 503.0) rotate(0.0 246.0 298.5) scale(1.9078419283163297 1.9121622487284282)"><g clip-path="url(#clip-path-id-viewbox-item-2)" transform="translate(-0.0 -0.0)"><g>
	<path d="M51.556,208.812c-0.1-2.7-0.1-5.4-0.1-8.2c0,0,0-17.8,0-27.8c0-2.3-1.7-4.3-4-4.5c-34.6-3.5-30.8-59-12.7-59   c15.6,0,16.8,22.4,16.8,29.9c0,0.6,0.2,1.2,0.6,1.7c0.4,0.4,1,0.7,1.6,0.7c2.8,0,7.5,0,10.3,0c1.2,0,2.3-1,2.3-2.3   c0.6-95.4,36.8-68.5,77.6-78.8c68.8-17.3,72,4.3,101.3-0.5v140.7c0,49.8-11.3,87.6-75.2,94.3v17.2h-118.5V208.812L51.556,208.812   L51.556,208.812z" style="fill:#FF2E93;"/>
	<path d="M102.856,108.412c0,0,4.6-4.3,14.3-5.8c4.3-0.7,9.5-0.8,15.8,0.3c1.8,0.2,3.4-1.1,3.6-2.9s-1.1-3.4-2.9-3.6   c-7.1-0.4-12.8,0.3-17.5,1.5c-10.9,2.9-15.5,8.4-15.5,8.4c-0.6,0.6-0.6,1.6,0.1,2.2   C101.256,109.012,102.256,109.012,102.856,108.412L102.856,108.412z" style="fill:#142664;"/>
	<path d="M237.456,106.312c0,0-4.7-5.5-15.5-8.4c-4.6-1.2-10.4-1.9-17.5-1.5c-1.8,0.2-3.1,1.8-2.9,3.6   c0.2,1.8,1.8,3.1,3.6,2.9c6.3-1,11.5-0.9,15.8-0.3c9.7,1.5,14.3,5.8,14.3,5.8c0.6,0.6,1.6,0.7,2.2,0.1   S238.056,106.912,237.456,106.312L237.456,106.312z" style="fill:#142664;"/>
	<path d="M162.556,164.712c5,0.6,8.5,2,10.8,3.7c3.4,2.5,4.2,6,4.1,9.2c0.1,3.2-1.3,6.5-4.4,9c-2.4,1.9-5.8,3.3-10.5,4   c-0.9,0.1-1.5,0.9-1.4,1.8s0.9,1.5,1.8,1.4c7-0.5,11.7-2.8,14.6-5.8c3-3,4.2-6.7,4.3-10.3c0-3.7-1-7.6-3.9-10.6   c-2.8-2.8-7.4-5-15-5.5c-0.9-0.1-1.7,0.6-1.7,1.4C160.956,163.812,161.656,164.612,162.556,164.712L162.556,164.712z" style="fill:#142664;"/>
	<path d="M35.656,140.112c0,0,0.3-1.6,0.6-3.9c0.1-1.2,0.3-2.5,0.3-3.9c0-0.8-0.1-1.6-0.1-2.3c-0.3-3-0.7-5.4-0.7-5.4   c0-1.3-1.1-2.4-2.4-2.4s-2.4,1.1-2.4,2.4c0,0-0.4,2.4-0.7,5.4c-0.1,0.8-0.1,1.5-0.1,2.3c0,1.4,0.2,2.7,0.3,3.9   c0.2,2.3,0.6,3.9,0.6,3.9c0,1.3,1.1,2.4,2.4,2.4S35.656,141.412,35.656,140.112z" style="fill:#142664;"/>
	<path d="M177.856,234.112l-22.5-0.3c-0.9,0-1.6-0.7-1.6-1.6s0.7-1.6,1.6-1.6l30.7-0.5c1.2,0,2.2-0.5,2.9-1.3   c0.7-0.8,1.2-1.8,1.2-2.9v-4.1c0-1.1-0.5-2.2-1.2-2.9c-0.7-0.8-1.8-1.2-2.9-1.2l-39.2-0.5c-0.9,0-1.6-0.7-1.6-1.6s0.7-1.6,1.6-1.6   l39.2-0.5c2.3,0,4.4,0.9,6,2.4c1.5,1.5,2.5,3.6,2.5,6v4.1c0,2.3-1,4.4-2.5,5.9s-3.6,2.4-5.9,2.4l-4.6-0.1c0.1,0.7,0.1,1.5,0.2,2.3   c0.1,1.3,0.2,2.8,0.2,4.3c0,0.9,0,1.8-0.1,2.6c-0.2,3.3-0.5,6.1-0.5,6.1c0,0.9-0.7,1.6-1.6,1.6s-1.6-0.7-1.6-1.6   c0,0-0.3-2.7-0.5-6.1c0-0.8-0.1-1.7-0.1-2.6c0-1.5,0.1-3,0.2-4.3C177.656,235.612,177.756,234.812,177.856,234.112L177.856,234.112   z" style="fill:#142664;"/>
	<path d="M252.356,49.613c-9.029-20.198-41.904-48.073-73.933-48.073c-22.805,0-32.082,5.348-32.082,5.348   C109.785-4.627,89.855,0.45,70.21,6.574c-9.191,2.865-17.488,8.187-17.696,8.311c-16.2,10.5-22.4,19.2-24.6,26.4   c-0.2,0.8,0.1,1.5,0.7,2c0.6,0.4,1.4,0.5,2.1,0.2c0,0,0.1-0.1,0.2-0.1c1.2-0.5,2.6-0.2,3.4,0.9c0.8,1.1,0.7,2.5-0.2,3.5   c-0.123,0.14-2.611,1.936-3.664,2.712C16.695,60.628,11.2,72.924,9.156,79.613c-0.2,0.8,0.1,1.5,0.7,2c0.6,0.4,1.4,0.5,2.1,0.2   c0,0,0.1-0.1,0.2-0.1c1.2-0.5,2.6-0.2,3.4,0.9c0.8,1.1,0.7,2.5-0.2,3.5c-14.3,16.3-15.7,41.9-15.3,54.8c0.1,1.1,0.7,2.1,1.7,2.5   s2.2,0.3,3-0.4c1-0.8,2.4-0.9,3.5-0.2c1.1,0.7,1.7,1.9,1.4,3.2c-5.8,26.9,2.3,44.6,8.3,53.3c0.7,1,2,1.6,3.2,1.3   c1.3-0.3,2.2-1.3,2.5-2.5c0.2-1.1,0.5-2.1,0.8-3c0.4-1.4,1.7-2.2,3.1-2.2c1.4,0.1,2.6,1,3,2.4c5.1,19.2,11.2,35.6,15.7,46.3   c0.7,1.3,2.1,2.1,3.6,1.8c1.4-0.3,2.5-1.6,2.5-3.1c0-20.9-0.1-55.6-0.1-62.8c0-3.8,0-6.3,0-7.9c0.1-1.6-1.1-2.9-2.6-3.2   c-8.9-1.8-20.5-11.2-24-20.4c-3.9-10.2-6.5-35.8,10.1-35.8c13.4,0,15.1,21.6,15.2,29.8c0,1.8,1.5,3.2,3.2,3.2c3.3,0,8.6,0,12,0   c1.8,0,3.2-1.4,3.2-3.1c0.6-28.1,2.3-53.1,11.6-61.7c6.7-6.3,11.1,0.1,13.2,4.5c0.4,0.8,1.2,1.5,2.1,1.7c0.9,0.2,1.8,0.1,2.6-0.5   c6.1-4.4,9.3-9.6,10.9-13c0.4-0.9,1.2-1.6,2.2-1.8s2,0.1,2.7,0.7c5.8,5.2,9,13.9,10.5,18.7c0.3,0.9,1,1.6,1.8,2   c0.9,0.4,1.9,0.4,2.7,0c10.2-4.9,14.7-12.1,16.5-16.1c0.3-0.8,1-1.4,1.9-1.7c0.9-0.3,1.8-0.2,2.6,0.3c2.9,1.8,4.9,4.6,6.2,7   c0.5,1,1.5,1.7,2.6,1.7c1.1,0.1,2.2-0.5,2.8-1.4c1.6-2.8,3-5.9,4-8.3c0.4-1,1.3-1.7,2.4-1.9c1-0.2,2.1,0.2,2.8,1   c3.7,4.8,7.3,13.3,9.2,17.9c0.3,0.8,1,1.5,1.9,1.8c0.9,0.3,1.8,0.2,2.6-0.3c7.2-4.5,11-13.2,12.6-17.9c0.2-0.9,0.9-1.5,1.7-1.9   s1.8-0.4,2.6,0c10.4,4.8,16.3,11.7,18.9,15.3c1,1.4,2.9,1.7,4.3,0.8c5-3.5,7.1-9.7,7.9-12.9c0.3-1.3,1.4-2.3,2.8-2.4   c6.4-0.3,12.5,4.4,16.3,8c0.8,0.8,2,1.1,3.1,0.7c1.1-0.3,1.9-1.3,2.1-2.4C259.356,66.613,254.42,54.229,252.356,49.613z" style="fill:#142664;"/>
	<path d="M136.356,126.412c0-6.9-5.6-12.5-12.5-12.5h-6.8c-6.9,0-12.5,5.6-12.5,12.5v39.8c0,6.9,5.6,12.5,12.5,12.5h6.8   c6.9,0,12.5-5.6,12.5-12.5V126.412z" style="fill:#FFFFFF;"/>
	<path d="M234.056,126.412c0-6.9-5.6-12.5-12.5-12.5h-6.8c-6.9,0-12.5,5.6-12.5,12.5v39.8c0,6.9,5.6,12.5,12.5,12.5h6.8   c6.9,0,12.5-5.6,12.5-12.5V126.412z" style="fill:#FFFFFF;"/>
	<path d="M130.356,141.212c0-2.7-2.2-4.9-4.9-4.9l0,0c-2.7,0-4.9,2.2-4.9,4.9c0,3.1,0,7.1,0,10.3c0,2.7,2.2,4.9,4.9,4.9   l0,0c2.7,0,4.9-2.2,4.9-4.9C130.356,148.312,130.356,144.312,130.356,141.212z" style="fill:#142664;"/>
	<path d="M228.056,141.212c0-2.7-2.2-4.9-4.9-4.9l0,0c-2.7,0-4.9,2.2-4.9,4.9c0,3.1,0,7.1,0,10.3c0,2.7,2.2,4.9,4.9,4.9   l0,0c2.7,0,4.9-2.2,4.9-4.9C228.056,148.312,228.056,144.312,228.056,141.212z" style="fill:#142664;"/>
	<path d="M169.956,293.312c0,0-11.2,0.7-25.9-1.1c-3.3-0.4-6.7-0.9-10.2-1.5c-2.2-0.4-4.5-0.9-6.8-1.4   c-9.1-2.1-18.4-5.2-26.6-10.2c-0.7-0.5-1.7-0.3-2.2,0.5c-0.5,0.7-0.3,1.7,0.5,2.2c7.3,4.8,15.5,8.3,23.7,10.6   c3.6,1,7.3,1.9,10.8,2.5c6.6,1.2,12.9,1.7,18.4,1.9c10.9,0.5,18.5-0.4,18.5-0.4c0.9-0.1,1.5-0.9,1.5-1.7   C171.556,293.912,170.756,293.212,169.956,293.312L169.956,293.312z" style="fill:#142664;"/>
	<path d="M54.356,312.112h112.9c1.2,0,2.2-1,2.2-2.2s-1-2.2-2.2-2.2h-112.9c-1.2,0-2.2,1-2.2,2.2   S53.156,312.112,54.356,312.112L54.356,312.112z" style="fill:#142664;"/>
</g>
</g></g></g><!--ITEM 3--><g><defs><clipPath id="clip-path-id-crop-item-3"><rect transform="scale(0.16478374455732947 0.1645761904761905)" x="0.0" y="642" width="689.0" height="1458.0"/></clipPath><clipPath id="clip-path-id-viewbox-item-3"><rect x="0.0" y="0.0" width="113.536" height="345.61"/></clipPath></defs><g clip-path="url(#clip-path-id-crop-item-3)" transform="translate(1611.0 756.0) rotate(0.0 344.5 1050.0) scale(6.068559751972942 6.07621307253841)"><g clip-path="url(#clip-path-id-viewbox-item-3)" transform="translate(-0.0 -0.0)"><g>
	<g>
		<path style="fill:#142664;" d="M111.064,345.107L111.064,345.107c-2.203,1.096-4.878,0.198-5.973-2.005L52.995,238.35l7.979-3.968    l52.096,104.752C114.165,341.337,113.267,344.012,111.064,345.107z"/>
	</g>
	<g>
		<path style="fill:#142664;" d="M2.472,345.107L2.472,345.107c2.203,1.096,4.878,0.198,5.973-2.005L60.542,238.35l-7.979-3.968    L0.467,339.134C-0.629,341.337,0.269,344.012,2.472,345.107z"/>
	</g>
	<g>
		<path style="fill:#142664;" d="M86.608,17.787l-4.381-4.381c-2.343-2.343-6.142-2.343-8.485,0L54.872,32.262    c-1.501,1.5-2.344,3.534-2.345,5.656l-0.127,303.237c0,2.461,1.995,4.455,4.455,4.455l0,0c2.461,0,4.455-1.995,4.455-4.455    l0.121-289.057c0.002-5.852,2.328-11.463,6.466-15.601L86.608,17.787z"/>
	</g>
	<g>
		<path style="fill:#142664;" d="M103.269,8.627L72.096,39.801c-1.562,1.562-4.095,1.562-5.657,0l-1.799-1.799    c-1.562-1.562-1.562-4.095,0-5.657L95.814,1.172c1.562-1.562,4.095-1.562,5.657,0l1.799,1.799    C104.831,4.533,104.831,7.065,103.269,8.627z"/>
	</g>
	<g>
		<path style="fill:#142664;" d="M62.586,120.506H51.382c-1.657,0-3-1.343-3-3V76.189c0-1.657,1.343-3,3-3h11.203    c1.657,0,3,1.343,3,3v41.317C65.586,119.163,64.242,120.506,62.586,120.506z"/>
	</g>
	<g>
		<rect x="28.951" y="289.323" style="fill:#142664;" width="56.878" height="9"/>
	</g>
</g>
</g></g></g><!--ITEM 4--><g><defs><clipPath id="clip-path-id-viewbox-item-4"><rect x="0.0" y="0.0" width="474.7" height="407.7"/></clipPath></defs><g transform="translate(1317.0 311.0) rotate(0.0 654.0 561.0) scale(2.7554244786180746 2.7520235467255336)"><g clip-path="url(#clip-path-id-viewbox-item-4)" transform="translate(-0.0 -0.0)"><g>
	<path d="M450.9,337.5c0-7.4-6-13.3-13.3-13.3c-63.7,0-336.9,0-400.7,0c-7.4,0-13.3,6-13.3,13.3c0,14.6,0,36.1,0,36.1   h427.3V337.5L450.9,337.5z" style="fill:#FFFFFF;"/>
	<path d="M453,364v-26.5c0-8.5-6.9-15.4-15.4-15.4c-63.7,0-336.9,0-400.7,0c-8.5,0-15.4,6.9-15.4,15.4   c0,11.6,0,26.5,0,26.5c0,1.2,0.9,2.1,2.1,2.1s2.1-0.9,2.1-2.1c0,0,0-15,0-26.5c0-6.2,5-11.2,11.2-11.2c63.7,0,336.9,0,400.7,0   c6.2,0,11.2,5,11.2,11.2V364c0,1.2,0.9,2.1,2.1,2.1S453,365.2,453,364z" style="fill:#142664;"/>
	<path d="M110.2,215.3c0,2.2,1.8,4,4,4c3.6,0,8.9,0,12.5,0c2.2,0,4-1.8,4-4v-3.6c0-1.7-1.4-3-3-3l0,0c-1.7,0-3-1.4-3-3   c0-3.1,0-8.1,0-11.5c0-2.2-1.8-4-4-4c-2,0-4.4,0-6.4,0c-2.2,0-4,1.8-4,4C110.2,199.7,110.2,209.8,110.2,215.3L110.2,215.3z" style="fill:#142664;"/>
	<path d="M209.5,287.3c0-2.2-1.8-4-4-4c-2.4,0-5.4,0-7.8,0c-2.2,0-4,1.8-4,4v4.6c0,0.6,0.2,1.1,0.6,1.5   c0.4,0.4,1,0.6,1.5,0.6l0,0c0.6,0,1.1,0.2,1.5,0.6c0.4,0.4,0.6,1,0.6,1.5c0,1.2,0,2.6,0,4c0,2.2,1.8,4,4,4c1.1,0,2.3,0,3.4,0   c2.2,0,4-1.8,4-4C209.5,296.6,209.5,291.1,209.5,287.3L209.5,287.3z" style="fill:#142664;"/>
	<path d="M316.2,247.6c0-2.2-1.8-4-4-4c-5.4,0-14.8,0-20.2,0c-2.2,0-4,1.8-4,4c0,3.3,0,8,0,11.3c0,2.2,1.8,4,4,4   c1,0,2,0,3,0c2.2,0,4,1.8,4,4c0,7.9,0,25.5,0,33.4c0,1.1,0.4,2.1,1.2,2.8c0.8,0.8,1.8,1.2,2.8,1.2c2.8,0,6.4,0,9.2,0   c1.1,0,2.1-0.4,2.8-1.2c0.8-0.8,1.2-1.8,1.2-2.8C316.2,289.3,316.2,258.6,316.2,247.6L316.2,247.6z" style="fill:#142664;"/>
	<path d="M439.8,157.3c0,1.1-0.4,2.1-1.2,2.9s-1.8,1.2-2.9,1.2c-5.6,0-15.6,0-21.2,0c-1.1,0-2.1-0.4-2.9-1.2   c-0.8-0.8-1.2-1.8-1.2-2.9c0-1.4,0-3,0-4.4c0-1.1-0.4-2.1-1.2-2.9s-1.8-1.2-2.9-1.2h-4.5c-2.3,0-4.1-1.8-4.1-4.1c0-0.6,0-1.3,0-1.9   c0-2.3-1.8-4.1-4.1-4.1c-8.3,0-27.2,0-35.6,0c-2.2,0-4.1,1.8-4.1,4.1c0,8,0,25.9,0,33.9c0,2.3-1.8,4.1-4.1,4.1c-1.3,0-2.8,0-4.2,0   c-2.3,0-4.1-1.8-4.1-4.1c0-1.6,0-3.5,0-5.1c0-2.2-1.8-4.1-4.1-4.1c-5.1,0-13.7,0-18.7,0c-1.1,0-2.1-0.4-2.9-1.2   c-0.8-0.8-1.2-1.8-1.2-2.9s0-2.2,0-3.3c0-1.1-0.4-2.1-1.2-2.9s-1.8-1.2-2.9-1.2c-4.9,0-13.2,0-18.1,0c-2.2,0-4.1,1.8-4.1,4.1   c0,5.9,0,16.8,0,22.7c0,1.1-0.4,2.1-1.2,2.9s-1.8,1.2-2.9,1.2h-14.5c-1.1,0-2.1-0.4-2.9-1.2c-0.8-0.8-1.2-1.8-1.2-2.9   c0-7.8,0-24.8,0-32.6c0-2.2-1.8-4.1-4.1-4.1c-2.8,0-6.5,0-9.3,0c-2.3,0-4.1,1.8-4.1,4.1c0,2.9,0,6.7,0,9.5c0,2.2-1.8,4.1-4.1,4.1   c-3.1,0-7.2,0-10.3,0c-2.3,0-4.1-1.8-4.1-4.1c0-6.1,0-17.5,0-23.5c0-1.1-0.4-2.1-1.2-2.9c-0.8-0.8-1.8-1.2-2.9-1.2   c-4.7,0-12.4,0-17.1,0c-1.1,0-2.1,0.4-2.9,1.2c-0.8,0.8-1.2,1.8-1.2,2.9c0,10.5,0,38.4,0,48.8c0,1.1-0.4,2.1-1.2,2.9   c-0.8,0.8-1.8,1.2-2.9,1.2c-7.9,0-25.1,0-33,0c-2.2,0-4.1-1.8-4.1-4.1c0-2.1,0-4.7,0-6.7c0-2.3-1.8-4.1-4.1-4.1   c-6.5,0-19.3,0-25.9,0c-1.1,0-2.1-0.4-2.9-1.2c-0.8-0.8-1.2-1.8-1.2-2.9c0-0.8,0-1.7,0-2.5c0-1.1-0.4-2.1-1.2-2.9   c-0.8-0.8-1.8-1.2-2.9-1.2c-4.9,0-12.9,0-17.8,0c-1.1,0-2.1-0.4-2.9-1.2c-0.8-0.8-1.2-1.8-1.2-2.9c0-2.8,0-6.5,0-9.3   c0-1.1-0.4-2.1-1.2-2.9c-0.8-0.8-1.8-1.2-2.9-1.2c-2.5,0-5.8,0-8.4,0c-2.2,0-4.1,1.8-4.1,4.1c0,6.7,0,20,0,26.7   c0,2.2-1.8,4.1-4.1,4.1c-1.8,0-4,0-5.9,0c-2.2,0-4.1,1.8-4.1,4.1c0,7.7,0,24.3,0,32c0,2.3-1.8,4.1-4.1,4.1c-4.9,0-13.1,0-18,0   c-1.1,0-2.1-0.4-2.9-1.2c-0.8-0.8-1.2-1.8-1.2-2.9c0-3.4,0-8.2,0-11.6c0-2.2-1.8-4.1-4.1-4.1c-1.2,0-2.6,0-3.8,0   c-1.1,0-2.1-0.4-2.9-1.2c-0.8-0.8-1.2-1.8-1.2-2.9c0-21.8,0-124.1,0-124.1h404.7L439.8,157.3L439.8,157.3z" style="fill:#00E6B3;"/>
	<path d="M299,156.1c8.4-26.8,33.4-46.3,63-46.3c31.5,0,57.8,22.1,64.4,51.6h-11.9c-1.1,0-2.1-0.4-2.9-1.2   c-0.8-0.8-1.2-1.8-1.2-2.9c0-1.4,0-3,0-4.4c0-1.1-0.4-2.1-1.2-2.9s-1.8-1.2-2.9-1.2h-4.5c-2.3,0-4.1-1.8-4.1-4.1c0-0.6,0-1.3,0-1.9   c0-2.3-1.8-4.1-4.1-4.1c-8.3,0-27.2,0-35.6,0c-2.2,0-4.1,1.8-4.1,4.1c0,8,0,25.9,0,33.9c0,2.3-1.8,4.1-4.1,4.1c-1.3,0-2.8,0-4.2,0   c-2.3,0-4.1-1.8-4.1-4.1c0-1.6,0-3.5,0-5.1c0-2.2-1.8-4.1-4.1-4.1c-5.1,0-13.7,0-18.7,0c-1.1,0-2.1-0.4-2.9-1.2   c-0.8-0.8-1.2-1.8-1.2-2.9s0-2.2,0-3.3c0-1.1-0.4-2.1-1.2-2.9s-1.8-1.2-2.9-1.2L299,156.1L299,156.1z" style="fill:#142664;"/>
	<path d="M315.8,166L373,97.9c1.6-1.8,4-2.6,6.4-2c2.3,0.6,4.1,2.5,4.5,4.9l6.7,37.9h-32.4c-2.2,0-4.1,1.8-4.1,4.1   c0,8,0,25.9,0,33.9c0,2.3-1.8,4.1-4.1,4.1c-1.3,0-2.8,0-4.2,0c-2.3,0-4.1-1.8-4.1-4.1c0-1.6,0-3.5,0-5.1c0-2.2-1.8-4.1-4.1-4.1   c-5.1,0-13.7,0-18.7,0c-1.1,0-2.1-0.4-2.9-1.2C315.9,166.2,315.9,166.1,315.8,166L315.8,166z" style="fill:#FF2E93;"/>
	<path d="M439.8,32.4c0-2.7-1.1-5.3-3-7.2s-4.5-3-7.2-3c-56.1,0-328.3,0-384.4,0c-2.7,0-5.3,1.1-7.2,3   c-1.9,1.9-3,4.5-3,7.2c0,14.9,0,41,0,41h404.7v-41H439.8z" style="fill:#142664;"/>
	<path d="M130.1,42.9c1.3-1.3,1.7-3.3,1-5s-2.4-2.8-4.2-2.8c-15.5,0-42.5,0-49.9,0c-1.2,0-2.4,0.5-3.2,1.3   c-3,3-10.5,10.4-16.3,16.3c-1.3,1.3-1.7,3.3-1,5s2.4,2.8,4.2,2.8c15.5,0,42.5,0,49.9,0c1.2,0,2.4-0.5,3.2-1.3   C116.8,56.2,124.3,48.7,130.1,42.9L130.1,42.9z" style="fill:#FFFFFF;"/>
	<path d="M228.7,31.3v32.4c0,1.2,0.9,2.1,2.1,2.1s2.1-0.9,2.1-2.1V31.3c0-1.2-0.9-2.1-2.1-2.1   C229.7,29.1,228.7,30.1,228.7,31.3L228.7,31.3z" style="fill:#00E6B3;"/>
	<path d="M279.1,31.3v32.4c0,1.2,0.9,2.1,2.1,2.1s2.1-0.9,2.1-2.1V31.3c0-1.2-0.9-2.1-2.1-2.1S279.1,30.1,279.1,31.3   L279.1,31.3z" style="fill:#00E6B3;"/>
	<path d="M221.1,45.3c0-0.6-0.2-1.1-0.6-1.5s-1-0.6-1.6-0.6c-5.7,0-20.8,0-26.5,0c-0.6,0-1.1,0.2-1.5,0.6   s-0.6,1-0.6,1.5c0,1.5,0,3.4,0,4.9c0,0.6,0.2,1.1,0.6,1.5s1,0.6,1.5,0.6c5.7,0,20.8,0,26.5,0c0.6,0,1.1-0.2,1.6-0.6   c0.4-0.4,0.6-1,0.6-1.5C221.1,48.7,221.1,46.8,221.1,45.3z" style="fill:#00E6B3;"/>
	<path d="M271.5,45.3c0-0.6-0.2-1.1-0.6-1.5c-0.4-0.4-1-0.6-1.5-0.6c-5.7,0-20.8,0-26.5,0c-0.6,0-1.1,0.2-1.5,0.6   c-0.4,0.4-0.6,1-0.6,1.5c0,1.5,0,3.4,0,4.9c0,0.6,0.2,1.1,0.6,1.5s1,0.6,1.5,0.6c5.7,0,20.8,0,26.5,0c0.6,0,1.1-0.2,1.5-0.6   s0.6-1,0.6-1.5C271.5,48.7,271.5,46.8,271.5,45.3z" style="fill:#00E6B3;"/>
	<path d="M321.9,45.3c0-0.6-0.2-1.1-0.6-1.5s-1-0.6-1.5-0.6c-5.7,0-20.8,0-26.5,0c-0.6,0-1.1,0.2-1.5,0.6   c-0.4,0.4-0.6,1-0.6,1.5c0,1.5,0,3.4,0,4.9c0,0.6,0.2,1.1,0.6,1.5c0.4,0.4,1,0.6,1.5,0.6c5.7,0,20.8,0,26.5,0   c0.6,0,1.1-0.2,1.5-0.6s0.6-1,0.6-1.5C321.9,48.7,321.9,46.8,321.9,45.3z" style="fill:#00E6B3;"/>
	<circle cx="366.9" cy="47.5" r="16.2" style="fill:#FF2E93;"/>
	<circle cx="42.5" cy="7.4" r="7.4" style="fill:#FF2E93;"/>
	<circle cx="66.4" cy="7.4" r="7.4" style="fill:#142664;"/>
	<circle cx="90.4" cy="7.4" r="7.4" style="fill:#00E6B3;"/>
	<circle cx="409.2" cy="47.5" r="16.2" style="fill:#FF2E93;"/>
	<path d="M93.8,97.5c0-1.1-0.4-2.2-1.2-2.9c-0.8-0.8-1.8-1.2-2.9-1.2c-3.6,0-8.7,0-12.3,0c-1.1,0-2.2,0.4-2.9,1.2   c-0.8,0.8-1.2,1.8-1.2,2.9c0,2.6,0,6,0,8.6c0,1.1,0.4,2.2,1.2,2.9s1.8,1.2,2.9,1.2c3.6,0,8.7,0,12.3,0c1.1,0,2.2-0.4,2.9-1.2   s1.2-1.8,1.2-2.9C93.8,103.5,93.8,100.1,93.8,97.5z" style="fill:#FFFFFF;"/>
	<path d="M243.9,97.5c0-2.3-1.9-4.2-4.2-4.2c-20.3,0-108.6,0-128.8,0c-2.3,0-4.2,1.9-4.2,4.2c0,2.6,0,6,0,8.6   c0,2.3,1.9,4.2,4.2,4.2c20.3,0,108.6,0,128.8,0c2.3,0,4.2-1.9,4.2-4.2C243.9,103.5,243.9,100.1,243.9,97.5z" style="fill:#FFFFFF;"/>
	<path d="M303.5,97.5c0-2.3-1.9-4.2-4.2-4.2h-38.2c-2.3,0-4.2,1.9-4.2,4.2v8.6c0,2.3,1.9,4.2,4.2,4.2h38.2   c2.3,0,4.2-1.9,4.2-4.2V97.5z" style="fill:#FFFFFF;"/>
	<path d="M406.7,40.8l0.7-2.9h3.8l0.7,2.9c0.1,0,0.2,0.1,0.3,0.1l2.5-1.6l2.7,2.7l-1.6,2.5c0,0.1,0.1,0.2,0.1,0.3   l2.9,0.7v3.8l-2.9,0.7c0,0.1-0.1,0.2-0.1,0.3l1.6,2.5l-2.7,2.7l-2.5-1.6c-0.1,0-0.2,0.1-0.3,0.1l-0.7,2.9h-3.8l-0.7-2.9   c-0.1,0-0.2-0.1-0.3-0.1l-2.5,1.6l-2.7-2.7l1.6-2.5c0-0.1-0.1-0.2-0.1-0.3l-2.9-0.7v-3.8l2.9-0.7c0-0.1,0.1-0.2,0.1-0.3l-1.6-2.5   l2.7-2.7l2.5,1.6C406.5,40.9,406.6,40.9,406.7,40.8z M409.2,44.2c1.8,0,3.2,1.5,3.2,3.2c0,1.8-1.5,3.2-3.2,3.2   c-1.8,0-3.2-1.5-3.2-3.2S407.4,44.2,409.2,44.2z" style="fill:#FFFFFF;"/>
	<path d="M92.1,135.1c0.7,0,1.5,0.3,2,0.8s0.8,1.2,0.8,2c0,0.5,0,1.1,0,1.6c0,0.7-0.3,1.5-0.8,2s-1.2,0.8-2,0.8   c-4.2,0-12,0-16.1,0c-0.7,0-1.5-0.3-2-0.8s-0.8-1.2-0.8-2c0-0.5,0-1.1,0-1.6c0-0.7,0.3-1.5,0.8-2s1.2-0.8,2-0.8   C80.2,135.1,87.9,135.1,92.1,135.1z M153.9,139.6c0,0.7-0.3,1.5-0.8,2s-1.2,0.8-2,0.8c-9.1,0-37.8,0-46.9,0c-0.7,0-1.5-0.3-2-0.8   s-0.8-1.2-0.8-2c0-0.5,0-1.1,0-1.6c0-0.7,0.3-1.5,0.8-2s1.2-0.8,2-0.8c9.1,0,37.8,0,46.9,0c0.7,0,1.5,0.3,2,0.8s0.8,1.2,0.8,2   C153.9,138.5,153.9,139,153.9,139.6z M204.7,142.4H163c-0.7,0-1.5-0.3-2-0.8s-0.8-1.2-0.8-2c0-0.5,0-1.1,0-1.6c0-0.7,0.3-1.5,0.8-2   s1.2-0.8,2-0.8c9.8,0,41.7,0,41.7,0V142.4z M250.2,139.6c0,0.7-0.3,1.5-0.8,2s-1.2,0.8-2,0.8c-2.9,0-7.5,0-10.4,0   c-0.7,0-1.5-0.3-2-0.8s-0.8-1.2-0.8-2c0-0.5,0-1.1,0-1.6c0-0.7,0.3-1.5,0.8-2s1.2-0.8,2-0.8c2.9,0,7.5,0,10.4,0   c0.7,0,1.5,0.3,2,0.8s0.8,1.2,0.8,2C250.2,138.5,250.2,139,250.2,139.6z M256.6,137.9c0-0.7,0.3-1.5,0.8-2s1.2-0.8,2-0.8   c4.1,0,11.7,0,15.8,0c0.7,0,1.5,0.3,2,0.8s0.8,1.2,0.8,2c0,0.5,0,1.1,0,1.6c0,0.7-0.3,1.5-0.8,2s-1.2,0.8-2,0.8   c-4.1,0-11.7,0-15.8,0c-0.7,0-1.5-0.3-2-0.8s-0.8-1.2-0.8-2C256.6,139,256.6,138.5,256.6,137.9L256.6,137.9z" style="fill:#142664;"/>
	<path d="M119.4,121.4c1.6,0,2.8,1.3,2.8,2.8c0,0.5,0,1.1,0,1.6c0,1.6-1.3,2.8-2.8,2.8c-8.7,0-34.8,0-43.4,0   c-1.6,0-2.8-1.3-2.8-2.8c0-0.5,0-1.1,0-1.6c0-1.6,1.3-2.8,2.8-2.8C84.7,121.4,110.8,121.4,119.4,121.4z M141.8,125.9   c0,0.7-0.3,1.5-0.8,2s-1.2,0.8-2,0.8c-2.2,0-5.3,0-7.5,0c-0.7,0-1.5-0.3-2-0.8s-0.8-1.2-0.8-2c0-0.5,0-1.1,0-1.6   c0-0.7,0.3-1.5,0.8-2s1.2-0.8,2-0.8c2.2,0,5.3,0,7.5,0c0.7,0,1.5,0.3,2,0.8s0.8,1.2,0.8,2C141.8,124.8,141.8,125.3,141.8,125.9z    M223.5,125.9c0,0.7-0.3,1.5-0.8,2s-1.2,0.8-2,0.8c-11.9,0-57.8,0-69.7,0c-0.7,0-1.5-0.3-2-0.8s-0.8-1.2-0.8-2c0-0.5,0-1.1,0-1.6   c0-0.7,0.3-1.5,0.8-2s1.2-0.8,2-0.8c11.9,0,57.8,0,69.7,0c0.7,0,1.5,0.3,2,0.8s0.8,1.2,0.8,2C223.5,124.8,223.5,125.3,223.5,125.9z    M229.8,124.2c0-0.7,0.3-1.5,0.8-2s1.2-0.8,2-0.8c8.5,0,34,0,42.5,0c0.7,0,1.5,0.3,2,0.8s0.8,1.2,0.8,2c0,0.5,0,1.1,0,1.6   c0,0.7-0.3,1.5-0.8,2s-1.2,0.8-2,0.8c-8.5,0-34,0-42.5,0c-0.7,0-1.5-0.3-2-0.8s-0.8-1.2-0.8-2C229.8,125.3,229.8,124.8,229.8,124.2   L229.8,124.2z" style="fill:#142664;"/>
	<path d="M87.2,148.8v7.3H76c-0.7,0-1.5-0.3-2-0.8s-0.8-1.2-0.8-2c0-0.5,0-1.1,0-1.6c0-0.7,0.3-1.5,0.8-2s1.2-0.8,2-0.8   C80.1,148.8,87.2,148.8,87.2,148.8z M157.6,153.3c0,1.6-1.3,2.8-2.8,2.8c-5.4,0-17.1,0-22.5,0c-1.6,0-2.8-1.3-2.8-2.8   c0-0.5,0-1.1,0-1.6c0-1.6,1.3-2.8,2.8-2.8c5.4,0,17.1,0,22.5,0c1.6,0,2.8,1.3,2.8,2.8C157.6,152.2,157.6,152.7,157.6,153.3   L157.6,153.3z M174.2,153.3c0,1.6-1.3,2.8-2.8,2.8c-1.4,0-3.2,0-4.6,0c-1.6,0-2.8-1.3-2.8-2.8c0-0.5,0-1.1,0-1.6   c0-1.6,1.3-2.8,2.8-2.8c1.4,0,3.2,0,4.6,0c1.6,0,2.8,1.3,2.8,2.8C174.2,152.2,174.2,152.7,174.2,153.3z M204.7,148.8v7.3h-21.3   c-0.7,0-1.5-0.3-2-0.8s-0.8-1.2-0.8-2c0-0.5,0-1.1,0-1.6c0-0.7,0.3-1.5,0.8-2s1.2-0.8,2-0.8C189.8,148.8,204.7,148.8,204.7,148.8z    M230,148.8h9.5c1.6,0,2.8,1.3,2.8,2.8c0,0.5,0,1.1,0,1.6c0,1.6-1.3,2.8-2.8,2.8c-3.6,0-9.5,0-9.5,0V148.8L230,148.8z M109,151.6   c0-0.7,0.3-1.5,0.8-2s1.2-0.8,2-0.8c2.5,0,6,0,8.4,0c0.7,0,1.5,0.3,2,0.8s0.8,1.2,0.8,2c0,0.5,0,1.1,0,1.6c0,0.7-0.3,1.5-0.8,2   s-1.2,0.8-2,0.8c-2.5,0-6,0-8.4,0c-0.7,0-1.5-0.3-2-0.8s-0.8-1.2-0.8-2C109,152.7,109,152.2,109,151.6z" style="fill:#142664;"/>
	<path d="M147.7,49.1c1.3-1.3,1.7-3.3,1-5s-2.4-2.8-4.2-2.8c-12.5,0-31.9,0-38,0c-1.2,0-2.4,0.5-3.2,1.3   c-1,1-2.4,2.4-4,4c-1.3,1.3-1.7,3.3-1,5s2.4,2.8,4.2,2.8c12.5,0,31.9,0,38,0c1.2,0,2.4-0.5,3.2-1.3C144.7,52,146.2,50.6,147.7,49.1   z" style="fill:#FF2E93;"/>
	<path d="M92.3,49.1c1.3-1.3,1.7-3.3,1-5s-2.4-2.8-4.2-2.8c-4,0-8.1,0-10.5,0c-1.2,0-2.4,0.5-3.2,1.3c-1,1-2.4,2.4-4,4   c-1.3,1.3-1.7,3.3-1,5s2.4,2.8,4.2,2.8c4,0,8.1,0,10.5,0c1.2,0,2.4-0.5,3.2-1.3C89.4,52,90.8,50.6,92.3,49.1z" style="fill:#FF2E93;"/>
	<path d="M80.4,296.3c-1.6,0-2.8-1.3-2.8-2.8c0-6.1,0-20.3,0-27.2c0-1.1,0.4-2.1,1.2-2.8c0.8-0.8,1.8-1.2,2.8-1.2   c2.2,0,4.9,0,7.1,0s4,1.8,4,4v1.8c0,1.1,0.4,2.1,1.2,2.8c0.8,0.8,1.8,1.2,2.8,1.2c0.7,0,1.4,0,2.1,0c1.1,0,2.1,0.4,2.8,1.2   c0.8,0.8,1.2,1.8,1.2,2.8c0,5.6,0,15.6,0,21.1c0,1.1-0.4,2.1-1.2,2.8c-0.8,0.8-1.8,1.2-2.8,1.2c-1.2,0-2.4,0-3.6,0   c-2.2,0-4,1.8-4,4c0,0.1,0,0.2,0,0.3c0,2.2-1.8,4-4,4l0,0c-2.2,0-4-1.8-4-4c0-2.1,0-4.6,0-6.4C83.3,297.5,82,296.3,80.4,296.3   L80.4,296.3L80.4,296.3z" style="fill:#00E6B3;"/>
	<path d="M297,228.5c-1.1,0-1.9-0.9-1.9-1.9c0-4.7,0-16.8,0-22c0-1.3,1.1-2.4,2.4-2.4c1,0,2.2,0,3.3,0   c0.7,0,1.4,0.3,1.9,0.8s0.8,1.2,0.8,1.9l0,0c0,0.7,0.3,1.4,0.8,1.9s1.2,0.8,1.9,0.8c0,0,0,0,0.1,0c0.7,0,1.5,0.3,2,0.8   s0.8,1.2,0.8,2c0,2.6,0,6.5,0,9.4c0,1.1-0.4,2.1-1.2,2.8c-0.8,0.8-1.8,1.2-2.8,1.2c-0.2,0-0.4,0-0.5,0c-0.5,0-1,0.2-1.4,0.6   s-0.6,0.9-0.6,1.4c0,0.3,0,0.5,0,0.8c0,0.5-0.2,1-0.6,1.4c-0.4,0.4-0.9,0.6-1.4,0.6C299.6,228.5,298.2,228.5,297,228.5L297,228.5z" style="fill:#FF2E93;"/>
	<path d="M66.1,244.9c0-1.1-0.4-2.1-1.2-2.8c-0.8-0.8-1.8-1.2-2.8-1.2h-5.2c-1.1,0-2.1,0.4-2.8,1.2s-1.2,1.8-1.2,2.8   v5.2c0,1.1,0.4,2.1,1.2,2.8c0.8,0.8,1.8,1.2,2.8,1.2h5.2c1.1,0,2.1-0.4,2.8-1.2c0.8-0.8,1.2-1.8,1.2-2.8V244.9z" style="fill:#FF2E93;"/>
	<path d="M357.6,56.1L357.6,56.1c0-4.3,0.8-7.8,6.4-8.7c-1.5-1-2.5-2.7-2.5-4.6c0-3,2.5-5.5,5.5-5.5s5.5,2.5,5.5,5.5   c0,1.9-1,3.7-2.5,4.6c5.6,0.9,6.3,4.4,6.4,8.7c0,0.1,0,0.3-0.1,0.3c-0.1,0.1-0.2,0.1-0.3,0.1c-2.6,0-15.1,0-17.8,0   c-0.1,0-0.2-0.1-0.3-0.1C357.6,56.4,357.6,56.3,357.6,56.1L357.6,56.1L357.6,56.1z" style="fill:#FFFFFF;"/>
	<path d="M120.5,206.1c0-1.1-0.4-2.1-1.2-2.8c-0.8-0.8-1.8-1.2-2.8-1.2c-4,0-10,0-14,0c-1.1,0-2.1,0.4-2.8,1.2   c-0.8,0.8-1.2,1.8-1.2,2.8c0,5.4,0,14.8,0,20.2c0,1.1,0.4,2.1,1.2,2.8c0.8,0.8,1.8,1.2,2.8,1.2c4,0,10,0,14,0   c1.1,0,2.1-0.4,2.8-1.2c0.8-0.8,1.2-1.8,1.2-2.8C120.5,220.9,120.5,211.4,120.5,206.1z" style="fill:#00E6B3;"/>
	<path d="M326.8,266.5c0-2.2-1.8-4-4-4h-8.9c-2.2,0-4,1.8-4,4v26.2c0,2.2,1.8,4,4,4h8.9c2.2,0,4-1.8,4-4V266.5z" style="fill:#FF2E93;"/>
	<path d="M400.2,185.6c0-0.9-0.7-1.6-1.6-1.6c-0.8,0-1.8,0-2.6,0c-0.9,0-1.6,0.7-1.6,1.6c0,4.7,0,18.1,0,22.8   c0,0.9,0.7,1.6,1.6,1.6c0.8,0,1.8,0,2.6,0c0.9,0,1.6-0.7,1.6-1.6C400.2,203.7,400.2,190.3,400.2,185.6z" style="fill:#FF2E93;"/>
	<path d="M272.8,256c0-0.9-0.7-1.6-1.6-1.6c-2.1,0-5.8,0-8,0c-0.9,0-1.6,0.7-1.6,1.6c0,3.5,0,11.8,0,15.4   c0,0.9,0.7,1.6,1.6,1.6c2.1,0,5.8,0,8,0c0.9,0,1.6-0.7,1.6-1.6C272.8,267.9,272.8,259.6,272.8,256z" style="fill:#00E6B3;"/>
	<path d="M224.4,183.1c-2.2,0-4,1.8-4,4c0,6.7,0,20,0,26.6c0,2.2,1.8,4,4,4c1.8,0,4,0,5.8,0c2.2,0,4-1.8,4-4   c0-2.1,0-4.6,0-6.4c0-0.6-0.2-1.2-0.7-1.6c-0.4-0.4-1-0.7-1.6-0.7l0,0c-0.6,0-1.2-0.2-1.6-0.7c-0.4-0.4-0.7-1-0.7-1.6   c0-3.7,0-11.1,0-15.6c0-2.2-1.8-4-4-4C225.2,183.1,224.8,183.1,224.4,183.1z" style="fill:#FF2E93;"/>
	<path d="M384.1,184.5c2.2,0,4-1.8,4-4c0-5.9,0-16.9,0-22.8c0-1.1-0.4-2.1-1.2-2.8c-0.8-0.8-1.8-1.2-2.8-1.2h-7.6   c-1.1,0-2.1,0.4-2.8,1.2c-0.8,0.8-1.2,1.8-1.2,2.8c0,2.5,0,5.5,0,7.7c0,1.5,1.2,2.6,2.6,2.6l0,0c0.7,0,1.4,0.3,1.9,0.8   s0.8,1.2,0.8,1.9c0,2.6,0,6.8,0,9.8c0,2.2,1.8,4,4,4C382.5,184.5,383.3,184.5,384.1,184.5L384.1,184.5z" style="fill:#142664;"/>
	<path d="M362.2,218.7c-2.2,0-4,1.8-4,4c0,7.4,0,23,0,30.3c0,2.2,1.8,4,4,4c3.3,0,8.1,0,11.4,0c2.2,0,4-1.8,4-4   c0-5.2,0-14.3,0-19.1c0-1.8-1.5-3.3-3.3-3.3l0,0c-1.8,0-3.3-1.5-3.3-3.3v-4.7c0-1.1-0.4-2.1-1.2-2.8c-0.8-0.8-1.8-1.2-2.8-1.2   C365.6,218.7,363.8,218.7,362.2,218.7z" style="fill:#00E6B3;"/>
	<path d="M64.2,306.3c-2.2,0-4,1.8-4,4c0,8.7,0,28.7,0,28.7h17.7v-19.9c0-1.1-0.4-2.1-1.2-2.8c-0.8-0.8-1.8-1.2-2.8-1.2   l0,0c-2.2,0-4-1.8-4-4c0-0.2,0-0.5,0-0.7c0-2.2-1.8-4-4-4C65.3,306.3,64.7,306.3,64.2,306.3L64.2,306.3z" style="fill:#142664;"/>
	<path d="M181.7,229.2c0-1.1-0.4-2.1-1.2-2.8c-0.8-0.8-1.8-1.2-2.8-1.2c-3.4,0-8.2,0-11.6,0c-2.2,0-4,1.8-4,4   c0,8.8,0,29.9,0,38.7c0,2.2,1.8,4,4,4c2.5,0,5.6,0,8,0c2.2,0,4-1.8,4-4c0-1.2,0-2.5,0-3.5c0-0.7-0.3-1.3-0.8-1.8s-1.1-0.8-1.8-0.8   l0,0c-0.7,0-1.3-0.3-1.8-0.8s-0.8-1.1-0.8-1.8c0-3.9,0-11.3,0-15.9c0-1.1,0.4-2.1,1.2-2.8c0.8-0.8,1.8-1.2,2.8-1.2   c0.2,0,0.5,0,0.7,0c1.1,0,2.1-0.4,2.8-1.2c0.8-0.8,1.2-1.8,1.2-2.8C181.7,233.4,181.7,231.1,181.7,229.2L181.7,229.2z" style="fill:#00E6B3;"/>
	<path d="M474.5,377.6c0-5.2-4.2-9.4-9.4-9.4c-60.5,0-395.2,0-455.7,0c-5.2,0-9.4,4.2-9.4,9.4c0,8,0,19.2,0,25.4   c0,1.2,0.5,2.4,1.4,3.3c0.9,0.9,2.1,1.4,3.3,1.4c46.1,0,419.1,0,465.1,0c1.2,0,2.4-0.5,3.3-1.4c0.9-0.9,1.4-2.1,1.4-3.3   C474.5,396.8,474.5,385.6,474.5,377.6z" style="fill:#FF2E93;"/>
	<path d="M474.5,377.6c0-2.5-1-4.9-2.7-6.6c-1.8-1.8-4.1-2.7-6.6-2.7h-20.7c-2.5,0-4.9,1-6.6,2.7   c-1.8,1.8-2.7,4.1-2.7,6.6v25.3c0,2.7,2.2,4.8,4.8,4.8h30c2.6,0,4.7-2.1,4.7-4.7v-25.4H474.5z" style="fill:#142664;"/>
	<path d="M439.8,334.4c0-2.5-2-4.6-4.6-4.6H39.6c-2.5,0-4.6,2-4.6,4.6l0,0c0,2.5,2,4.6,4.6,4.6h395.6   C437.7,338.9,439.8,336.9,439.8,334.4L439.8,334.4z" style="fill:#142664;"/>
	<path d="M384,338.9v-25.5c0-2.1,1.7-3.9,3.9-3.9l0,0c2.1,0,3.9-1.7,3.9-3.9c0-2.9,0-6.9,0-9.9c0-1.1,0.4-2.1,1.2-2.8   c0.8-0.8,1.8-1.2,2.8-1.2h2.5c1.1,0,2.1,0.4,2.8,1.2c0.8,0.8,1.2,1.8,1.2,2.8s0,2.1,0,3.1c0,1.1,0.4,2.1,1.2,2.8   c0.8,0.7,1.8,1.2,2.8,1.2c0.7,0,1.4,0,2.1,0c1.1,0,2.1,0.4,2.8,1.2c0.8,0.8,1.2,1.8,1.2,2.8c0,9.4,0,32,0,32H384V338.9z" style="fill:#00E6B3;"/>
	<path d="M166.8,257.6c0-2.2-1.8-4-4-4c-1.4,0-2.9,0-4.3,0c-2.2,0-4,1.8-4,4c0,6.2,0,18,0,24.4c0,1.2,0.5,2.3,1.3,3.1   c0.8,0.8,1.9,1.3,3.1,1.3s2.4,0,3.6,0s2.3-0.5,3.1-1.3c0.8-0.8,1.3-1.9,1.3-3.1C166.8,275.6,166.8,263.8,166.8,257.6L166.8,257.6z" style="fill:#FF2E93;"/>
	<path d="M433.6,255.1c0-2.2-1.8-4-4-4h-7.7c-2.2,0-4,1.8-4,4v7.7c0,2.2,1.8,4,4,4h7.7c2.2,0,4-1.8,4-4V255.1z" style="fill:#FF2E93;"/>
	<path d="M411.4,226.6c0-0.7-0.6-1.3-1.3-1.3h-3.8c-0.7,0-1.3,0.6-1.3,1.3v3.8c0,0.7,0.6,1.3,1.3,1.3h3.8   c0.7,0,1.3-0.6,1.3-1.3V226.6z" style="fill:#142664;"/>
	<path d="M273.6,209.5c0-0.7-0.6-1.3-1.3-1.3h-3.8c-0.7,0-1.3,0.6-1.3,1.3v3.8c0,0.7,0.6,1.3,1.3,1.3h3.8   c0.7,0,1.3-0.6,1.3-1.3V209.5z" style="fill:#142664;"/>
	<path d="M187.4,302.7c0-0.7-0.6-1.3-1.3-1.3c-0.5,0-1.1,0-1.7,0c-0.7,0-1.3,0.6-1.3,1.3c0,0.5,0,1.1,0,1.7   c0,0.7,0.6,1.3,1.3,1.3c0.5,0,1.1,0,1.7,0c0.7,0,1.3-0.6,1.3-1.3V302.7z" style="fill:#142664;"/>
	<path d="M417.9,289.2c0-0.7-0.6-1.3-1.3-1.3c-0.5,0-1.1,0-1.7,0c-0.7,0-1.3,0.6-1.3,1.3c0,0.5,0,1.1,0,1.7   c0,0.7,0.6,1.3,1.3,1.3c0.5,0,1.1,0,1.7,0c0.7,0,1.3-0.6,1.3-1.3V289.2z" style="fill:#142664;"/>
	<path d="M331.4,311c0-0.7-0.6-1.3-1.3-1.3c-0.5,0-1.1,0-1.7,0c-0.7,0-1.3,0.6-1.3,1.3c0,0.5,0,1.1,0,1.7   c0,0.7,0.6,1.3,1.3,1.3c0.5,0,1.1,0,1.7,0c0.7,0,1.3-0.6,1.3-1.3V311z" style="fill:#142664;"/>
	<path d="M337.5,276.4c0-0.7-0.6-1.3-1.3-1.3c-0.5,0-1.1,0-1.7,0c-0.7,0-1.3,0.6-1.3,1.3c0,0.5,0,1.1,0,1.7   c0,0.7,0.6,1.3,1.3,1.3c0.5,0,1.1,0,1.7,0c0.7,0,1.3-0.6,1.3-1.3V276.4z" style="fill:#00E6B3;"/>
	<path d="M376.7,193.8c0-0.7-0.6-1.3-1.3-1.3c-0.5,0-1.1,0-1.7,0c-0.7,0-1.3,0.6-1.3,1.3c0,0.5,0,1.1,0,1.7   c0,0.7,0.6,1.3,1.3,1.3c0.5,0,1.1,0,1.7,0c0.7,0,1.3-0.6,1.3-1.3V193.8z" style="fill:#142664;"/>
	<path d="M151.8,210.3c0-0.7-0.6-1.3-1.3-1.3c-0.5,0-1.1,0-1.7,0c-0.7,0-1.3,0.6-1.3,1.3c0,0.5,0,1.1,0,1.7   c0,0.7,0.6,1.3,1.3,1.3c0.5,0,1.1,0,1.7,0c0.7,0,1.3-0.6,1.3-1.3V210.3z" style="fill:#142664;"/>
	<path d="M103.4,248.2c0-0.7-0.6-1.3-1.3-1.3c-0.5,0-1.1,0-1.7,0c-0.7,0-1.3,0.6-1.3,1.3c0,0.5,0,1.1,0,1.7   c0,0.7,0.6,1.3,1.3,1.3c0.5,0,1.1,0,1.7,0c0.7,0,1.3-0.6,1.3-1.3V248.2z" style="fill:#FF2E93;"/>
	<path d="M128,283.3c0-0.7-0.6-1.3-1.3-1.3c-0.5,0-1.1,0-1.7,0c-0.7,0-1.3,0.6-1.3,1.3c0,0.5,0,1.1,0,1.7   c0,0.7,0.6,1.3,1.3,1.3c0.5,0,1.1,0,1.7,0c0.7,0,1.3-0.6,1.3-1.3V283.3z" style="fill:#FF2E93;"/>
	<path d="M195.9,313.5c0-0.7-0.6-1.3-1.3-1.3c-0.5,0-1.1,0-1.7,0c-0.7,0-1.3,0.6-1.3,1.3c0,0.5,0,1.1,0,1.7   c0,0.7,0.6,1.3,1.3,1.3c0.5,0,1.1,0,1.7,0c0.7,0,1.3-0.6,1.3-1.3V313.5z" style="fill:#FF2E93;"/>
	<path d="M409.9,168.3c0-0.7-0.6-1.3-1.3-1.3c-0.5,0-1.1,0-1.7,0c-0.7,0-1.3,0.6-1.3,1.3c0,0.5,0,1.1,0,1.7   c0,0.7,0.6,1.3,1.3,1.3c0.5,0,1.1,0,1.7,0c0.7,0,1.3-0.6,1.3-1.3V168.3z" style="fill:#FF2E93;"/>
	<path d="M259.4,248.1c0-0.7-0.6-1.3-1.3-1.3c-0.5,0-1.1,0-1.7,0c-0.7,0-1.3,0.6-1.3,1.3c0,0.5,0,1.1,0,1.7   c0,0.7,0.6,1.3,1.3,1.3c0.5,0,1.1,0,1.7,0c0.7,0,1.3-0.6,1.3-1.3V248.1z" style="fill:#FF2E93;"/>
	<path d="M225,155.5c0-0.7-0.6-1.3-1.3-1.3c-0.5,0-1.1,0-1.7,0c-0.7,0-1.3,0.6-1.3,1.3c0,0.5,0,1.1,0,1.7   c0,0.7,0.6,1.3,1.3,1.3c0.5,0,1.1,0,1.7,0c0.7,0,1.3-0.6,1.3-1.3V155.5z" style="fill:#FF2E93;"/>
	<path d="M121,183.2c0-0.7-0.6-1.3-1.3-1.3c-0.5,0-1.1,0-1.7,0c-0.7,0-1.3,0.6-1.3,1.3c0,0.5,0,1.1,0,1.7   c0,0.7,0.6,1.3,1.3,1.3c0.5,0,1.1,0,1.7,0c0.7,0,1.3-0.6,1.3-1.3V183.2z" style="fill:#FF2E93;"/>
	<path d="M72.3,289.7c0-0.7-0.6-1.3-1.3-1.3c-0.5,0-1.1,0-1.7,0c-0.7,0-1.3,0.6-1.3,1.3c0,0.5,0,1.1,0,1.7   c0,0.7,0.6,1.3,1.3,1.3c0.5,0,1.1,0,1.7,0c0.7,0,1.3-0.6,1.3-1.3V289.7z" style="fill:#00E6B3;"/>
	<path d="M248.4,305.9c0-0.7-0.6-1.3-1.3-1.3c-0.5,0-1.1,0-1.7,0c-0.7,0-1.3,0.6-1.3,1.3c0,0.5,0,1.1,0,1.7   c0,0.7,0.6,1.3,1.3,1.3c0.5,0,1.1,0,1.7,0c0.7,0,1.3-0.6,1.3-1.3V305.9z" style="fill:#00E6B3;"/>
	<path d="M279.9,220c0-0.7-0.6-1.3-1.3-1.3c-0.5,0-1.1,0-1.7,0c-0.7,0-1.3,0.6-1.3,1.3c0,0.5,0,1.1,0,1.7   c0,0.7,0.6,1.3,1.3,1.3c0.5,0,1.1,0,1.7,0c0.7,0,1.3-0.6,1.3-1.3V220z" style="fill:#00E6B3;"/>
	<path d="M323.8,193.8c0-0.7-0.6-1.3-1.3-1.3h-3.8c-0.7,0-1.3,0.6-1.3,1.3v3.8c0,0.7,0.6,1.3,1.3,1.3h3.8   c0.7,0,1.3-0.6,1.3-1.3V193.8z" style="fill:#FF2E93;"/>
	<path d="M240.6,283.2c0-0.7-0.6-1.3-1.3-1.3h-3.8c-0.7,0-1.3,0.6-1.3,1.3v3.8c0,0.7,0.6,1.3,1.3,1.3h3.8   c0.7,0,1.3-0.6,1.3-1.3V283.2z" style="fill:#FF2E93;"/>
	<path d="M386.8,274.8c0-0.7-0.6-1.3-1.3-1.3h-3.8c-0.7,0-1.3,0.6-1.3,1.3v3.8c0,0.7,0.6,1.3,1.3,1.3h3.8   c0.7,0,1.3-0.6,1.3-1.3V274.8z" style="fill:#FF2E93;"/>
	<path d="M95.2,236.5c0-0.7-0.6-1.3-1.3-1.3h-3.8c-0.7,0-1.3,0.6-1.3,1.3v3.8c0,0.7,0.6,1.3,1.3,1.3h3.8   c0.7,0,1.3-0.6,1.3-1.3V236.5z" style="fill:#142664;"/>
	<path d="M254.7,171.8c0-0.7-0.6-1.3-1.3-1.3h-3.8c-0.7,0-1.3,0.6-1.3,1.3v3.8c0,0.7,0.6,1.3,1.3,1.3h3.8   c0.7,0,1.3-0.6,1.3-1.3V171.8z" style="fill:#142664;"/>
	<path d="M158.2,197.4c0-0.7-0.6-1.3-1.3-1.3h-3.8c-0.7,0-1.3,0.6-1.3,1.3v3.8c0,0.7,0.6,1.3,1.3,1.3h3.8   c0.7,0,1.3-0.6,1.3-1.3V197.4z" style="fill:#00E6B3;"/>
	<path d="M343.7,285c0-0.7-0.6-1.3-1.3-1.3h-3.8c-0.7,0-1.3,0.6-1.3,1.3v3.8c0,0.7,0.6,1.3,1.3,1.3h3.8   c0.7,0,1.3-0.6,1.3-1.3V285z" style="fill:#00E6B3;"/>
	<path d="M220.4,224.1c0-0.7-0.6-1.3-1.3-1.3c-1.1,0-2.7,0-3.8,0c-0.7,0-1.3,0.6-1.3,1.3c0,2.2,0,6.5,0,8.7   c0,0.7,0.6,1.3,1.3,1.3c1.1,0,2.7,0,3.8,0c0.7,0,1.3-0.6,1.3-1.3C220.4,230.6,220.4,226.3,220.4,224.1z" style="fill:#142664;"/>
	<path d="M313,175.6c0-0.7-0.6-1.3-1.3-1.3c-1.1,0-2.7,0-3.8,0c-0.7,0-1.3,0.6-1.3,1.3c0,2.2,0,6.5,0,8.7   c0,0.7,0.6,1.3,1.3,1.3c1.1,0,2.7,0,3.8,0c0.7,0,1.3-0.6,1.3-1.3C313,182.1,313,177.8,313,175.6z" style="fill:#00E6B3;"/>
	<path d="M220,163.5c0-0.7-0.6-1.3-1.3-1.3c-1.1,0-2.7,0-3.8,0c-0.7,0-1.3,0.6-1.3,1.3c0,2.2,0,6.5,0,8.7   c0,0.7,0.6,1.3,1.3,1.3c1.1,0,2.7,0,3.8,0c0.7,0,1.3-0.6,1.3-1.3C220,170,220,165.7,220,163.5z" style="fill:#142664;"/>
	<path d="M46.5,272.1c0,0.7,0.6,1.3,1.3,1.3c1.1,0,2.7,0,3.8,0c0.7,0,1.3-0.6,1.3-1.3c0-2.2,0-6.5,0-8.7   c0-0.7-0.6-1.3-1.3-1.3c-1.1,0-2.7,0-3.8,0c-0.7,0-1.3,0.6-1.3,1.3C46.5,265.6,46.5,270,46.5,272.1z" style="fill:#142664;"/>
	<path d="M108.4,181.8v-8.6c0-0.7-0.6-1.3-1.3-1.3c-1.1,0-2.7,0-3.8,0c-0.7,0-1.3,0.6-1.3,1.3c0,0,0,1.4,0,2.5   c0,0.6-0.5,1.2-1.2,1.2c-1.1,0-2.5,0-2.5,0c-0.7,0-1.3,0.6-1.3,1.3c0,1.1,0,2.7,0,3.8c0,0.7,0.6,1.3,1.3,1.3h8.7l0,0l0,0l0,0l0,0   l0,0l0,0l0,0l0,0l0,0l0,0l0,0l0,0l0,0l0,0l0,0l0,0l0,0l0,0l0,0l0,0l0,0l0,0l0,0l0,0l0,0l0,0l0,0l0,0l0,0l0,0l0,0l0,0l0,0l0,0l0,0   l0,0l0,0l0,0l0,0l0,0l0,0l0,0l0,0l0,0l0,0l0,0l0,0l0,0l0,0l0,0l0,0l0,0l0,0l0,0l0,0l0,0l0,0l0,0l0,0l0,0L108.4,181.8L108.4,181.8   L108.4,181.8L108.4,181.8L108.4,181.8z" style="fill:#FF2E93;"/>
	<path d="M292.2,291v-8.7c0-0.7-0.6-1.3-1.3-1.3c-1.1,0-2.7,0-3.8,0c-0.7,0-1.3,0.6-1.3,1.3c0,0,0,1.4,0,2.5   c0,0.6-0.5,1.2-1.2,1.2c-1.1,0-2.5,0-2.5,0c-0.7,0-1.3,0.6-1.3,1.3c0,1.1,0,2.7,0,3.8c0,0.7,0.6,1.3,1.3,1.3h8.7l0,0l0,0l0,0l0,0   l0,0l0,0l0,0l0,0l0,0l0,0l0,0l0,0l0,0l0,0l0,0l0,0l0,0l0,0l0,0l0,0l0,0l0,0l0,0l0,0l0,0l0,0l0,0l0,0l0,0l0,0l0,0l0,0l0,0l0,0l0,0   l0,0l0,0l0,0l0,0l0,0l0,0l0,0l0,0l0,0l0,0l0,0l0,0l0,0l0,0l0,0l0,0l0,0l0,0l0,0l0,0l0,0l0,0l0,0l0,0l0,0L292.2,291L292.2,291   L292.2,291L292.2,291L292.2,291z" style="fill:#00E6B3;"/>
	<path d="M127.2,270.3h8.7c0.7,0,1.3-0.6,1.3-1.3c0-1.1,0-2.7,0-3.8c0-0.7-0.6-1.3-1.3-1.3c0,0-1.4,0-2.5,0   c-0.6,0-1.2-0.5-1.2-1.2c0-1.1,0-2.5,0-2.5c0-0.7-0.6-1.3-1.3-1.3c-1.1,0-2.7,0-3.8,0c-0.7,0-1.3,0.6-1.3,1.3v8.7l0,0l0,0l0,0l0,0   l0,0l0,0l0,0l0,0l0,0l0,0l0,0l0,0l0,0l0,0l0,0l0,0l0,0l0,0l0,0l0,0l0,0l0,0l0,0l0,0l0,0l0,0l0,0l0,0l0,0l0,0l0,0l0,0l0,0l0,0l0,0   l0,0l0,0l0,0l0,0l0,0l0,0l0,0l0,0l0,0l0,0l0,0l0,0l0,0l0,0l0,0l0,0l0,0l0,0l0,0l0,0l0,0l0,0l0,0l0,0l0,0L127.2,270.3L127.2,270.3   L127.2,270.3L127.2,270.3L127.2,270.3z" style="fill:#142664;"/>
	<path d="M365.3,319.9c0-1.1-0.4-2.1-1.2-2.8c-0.8-0.8-1.8-1.2-2.8-1.2c-1.2,0-2.6,0-3.9,0c-1.1,0-2.1,0.4-2.8,1.2   c-0.8,0.8-1.2,1.8-1.2,2.8c0,6.6,0,19,0,19h11.9V319.9L365.3,319.9z" style="fill:#FF2E93;"/>
	<g>
		<path d="M366.8,395.6c0-0.5-0.2-1-0.6-1.3c-0.4-0.4-0.8-0.6-1.3-0.6h-5.4c-0.5,0-1,0.2-1.3,0.6    c-0.4,0.4-0.6,0.8-0.6,1.3v5.4c0,0.5,0.2,1,0.6,1.3c0.4,0.4,0.8,0.6,1.3,0.6h5.4c0.5,0,1-0.2,1.3-0.6c0.3-0.4,0.6-0.8,0.6-1.3    V395.6z" style="fill:#FFFFFF;"/>
		<path d="M373.1,388.3c0-0.5-0.2-1-0.6-1.3c-0.4-0.3-0.8-0.6-1.3-0.6c-0.1,0-0.2,0-0.3,0c-0.5,0-1,0.2-1.3,0.6    c-0.3,0.4-0.6,0.8-0.6,1.3c0,1.6,0,3.8,0,5.4c0,0.5,0.2,1,0.6,1.3c0.4,0.3,0.8,0.6,1.3,0.6c0.1,0,0.2,0,0.3,0c0.5,0,1-0.2,1.3-0.6    c0.3-0.4,0.6-0.8,0.6-1.3C373.1,392.1,373.1,389.9,373.1,388.3z" style="fill:#FFFFFF;"/>
		<path d="M414,395.6c0-0.5-0.2-1-0.6-1.3c-0.4-0.4-0.8-0.6-1.3-0.6c-0.1,0-0.2,0-0.3,0c-0.5,0-1,0.2-1.3,0.6    c-0.4,0.4-0.6,0.8-0.6,1.3c0,1.6,0,3.8,0,5.4c0,0.5,0.2,1,0.6,1.3c0.4,0.4,0.8,0.6,1.3,0.6c0.1,0,0.2,0,0.3,0c0.5,0,1-0.2,1.3-0.6    c0.4-0.4,0.6-0.8,0.6-1.3C414,399.5,414,397.2,414,395.6z" style="fill:#FFFFFF;"/>
		<path d="M422.5,395.6c0-0.5-0.2-1-0.6-1.3c-0.4-0.4-0.8-0.6-1.3-0.6c-0.8,0-1.6,0-2.4,0c-0.5,0-1,0.2-1.3,0.6    c-0.4,0.4-0.6,0.8-0.6,1.3c0,1.6,0,3.8,0,5.4c0,0.5,0.2,1,0.6,1.3s0.8,0.6,1.3,0.6c0.8,0,1.6,0,2.4,0c0.5,0,1-0.2,1.3-0.6    c0.3-0.4,0.6-0.8,0.6-1.3C422.5,399.5,422.5,397.2,422.5,395.6z" style="fill:#FFFFFF;"/>
		<path d="M407.7,388.3c0-0.5-0.2-1-0.6-1.3c-0.4-0.3-0.8-0.6-1.3-0.6c-1.5,0-3.7,0-5.2,0c-0.5,0-1,0.2-1.3,0.6    c-0.3,0.4-0.6,0.8-0.6,1.3c0,1.6,0,3.8,0,5.4c0,0.5,0.2,1,0.6,1.3c0.4,0.3,0.8,0.6,1.3,0.6h5.2c0.5,0,1-0.2,1.3-0.6    c0.3-0.4,0.6-0.8,0.6-1.3V388.3z" style="fill:#FFFFFF;"/>
		<path d="M396.5,395.6c0-0.5-0.2-1-0.6-1.3c-0.4-0.4-0.8-0.6-1.3-0.6c-4,0-13.3,0-17.3,0c-0.5,0-1,0.2-1.3,0.6    c-0.4,0.4-0.6,0.8-0.6,1.3c0,1.6,0,3.8,0,5.4c0,0.5,0.2,1,0.6,1.3s0.8,0.6,1.3,0.6c4,0,13.3,0,17.3,0c0.5,0,1-0.2,1.3-0.6    c0.4-0.4,0.6-0.8,0.6-1.3C396.5,399.5,396.5,397.2,396.5,395.6z" style="fill:#FFFFFF;"/>
	</g>
	<path d="M454.9,394.2v11.4c0,1.2-0.9,2.1-2.1,2.1c-1.2,0-2.1-0.9-2.1-2.1v-13.5c0-1.2,0.9-2.1,2.1-2.1h19.6   c1.2,0,2.1,0.9,2.1,2.1c0,1.2-0.9,2.1-2.1,2.1H454.9z" style="fill:#00E6B3;"/>
	<g>
		<path d="M258,368.2h-14.8c0,0-7,7-11.3,11.4c-0.5,0.5-0.7,1.4-0.4,2.1c0.3,0.7,1,1.2,1.8,1.2c2.7,0,6,0,8.1,0    c1.3,0,2.6-0.5,3.5-1.5C248.6,377.7,258,368.2,258,368.2z" style="fill:#142664;"/>
		<path d="M247.2,368.4l-6.1,6.1c-0.8,0.8-0.8,2.2,0,3c0.8,0.8,2.2,0.8,3,0l6.1-6.1c0.8-0.8,0.8-2.2,0-3    C249.4,367.6,248.1,367.6,247.2,368.4L247.2,368.4z" style="fill:#00E6B3;"/>
	</g>
	<g>
		<path d="M279.5,368.2h-14.8c0,0-7,7-11.3,11.4c-0.5,0.5-0.7,1.4-0.4,2.1c0.3,0.7,1,1.2,1.8,1.2c2.7,0,6,0,8.1,0    c1.3,0,2.6-0.5,3.5-1.5C270.1,377.7,279.5,368.2,279.5,368.2z" style="fill:#142664;"/>
		<path d="M268.7,368.4l-6.1,6.1c-0.8,0.8-0.8,2.2,0,3c0.8,0.8,2.2,0.8,3,0l6.1-6.1c0.8-0.8,0.8-2.2,0-3    C270.9,367.6,269.6,367.6,268.7,368.4L268.7,368.4z" style="fill:#00E6B3;"/>
	</g>
	<g>
		<path d="M301,368.2h-14.8c0,0-7,7-11.3,11.4c-0.5,0.5-0.7,1.4-0.4,2.1c0.3,0.7,1,1.2,1.8,1.2c2.7,0,6,0,8.1,0    c1.3,0,2.6-0.5,3.5-1.5C291.6,377.7,301,368.2,301,368.2z" style="fill:#142664;"/>
		<path d="M290.2,368.4l-6.1,6.1c-0.8,0.8-0.8,2.2,0,3c0.8,0.8,2.2,0.8,3,0l6.1-6.1c0.8-0.8,0.8-2.2,0-3    C292.4,367.6,291,367.6,290.2,368.4L290.2,368.4z" style="fill:#00E6B3;"/>
	</g>
	<circle cx="54.3" cy="399" r="3.2" style="fill:#142664;"/>
	<circle cx="66.2" cy="399" r="3.2" style="fill:#142664;"/>
	<circle cx="312.4" cy="375.2" r="3.2" style="fill:#142664;"/>
	<circle cx="466.9" cy="382.6" r="3.2" style="fill:#00E6B3;"/>
	<path d="M139,355c0.5,0.7,0.5,1.6,0.1,2.3c-0.4,0.7-1.1,1.2-2,1.2h-11.2c-0.8,0-1.6-0.5-2-1.2   c-0.4-0.7-0.3-1.6,0.1-2.3c1.7-2.5,4-5.8,5.6-8.1c0.4-0.6,1.1-1,1.8-1s1.4,0.4,1.8,1C134.9,349.2,137.3,352.5,139,355z" style="fill:#142664;"/>
	<path d="M243.3,355c0.5,0.7,0.5,1.6,0.1,2.3c-0.4,0.7-1.1,1.2-2,1.2h-11.3c-0.8,0-1.6-0.5-2-1.2   c-0.4-0.7-0.3-1.6,0.1-2.3c1.7-2.5,4-5.8,5.6-8.1c0.4-0.6,1.1-1,1.8-1c0.7,0,1.4,0.4,1.8,1C239.3,349.2,241.6,352.5,243.3,355z" style="fill:#142664;"/>
	<path d="M350.4,355c0.5,0.7,0.5,1.6,0.1,2.3c-0.4,0.7-1.1,1.2-2,1.2h-11.3c-0.8,0-1.6-0.5-2-1.2   c-0.4-0.7-0.3-1.6,0.1-2.3c1.7-2.5,4-5.8,5.6-8.1c0.4-0.6,1.1-1,1.8-1s1.4,0.4,1.8,1C346.4,349.2,348.7,352.5,350.4,355z" style="fill:#142664;"/>
	<path d="M114.1,394.3l6.3-6.3h30.5l6.3,6.3v13.4h-43.1L114.1,394.3L114.1,394.3z" style="fill:#00E6B3;"/>
	<path d="M129,402.9h13.3c1.8,0,3.2-1.4,3.2-3.2s-1.4-3.2-3.2-3.2H129c-1.8,0-3.2,1.4-3.2,3.2S127.3,402.9,129,402.9z" style="fill:#142664;"/>
	<path d="M124.4,385.9l-7.7-7.7h-17c-1.2,0-2.1-0.9-2.1-2.1v-5.7c0-1.2,0.9-2.1,2.1-2.1s2.1,0.9,2.1,2.1v3.6h15.8   c0.6,0,1.1,0.2,1.5,0.6l11.3,11.3h15.3v-15.5c0-1.2,0.9-2.1,2.1-2.1s2.1,0.9,2.1,2.1v15.5h1c0.6,0,1.1,0.2,1.5,0.6l6.3,6.3   c0.4,0.4,0.6,0.9,0.6,1.5v11.3c0,1.2-0.9,2.1-2.1,2.1s-2.1-0.9-2.1-2.1v-10.4l-5.1-5.1h-28.7l-5.1,5.1v10.4c0,1.2-0.9,2.1-2.1,2.1   s-2.1-0.9-2.1-2.1v-11.3c0-0.6,0.2-1.1,0.6-1.5l6.3-6.3c0.4-0.4,0.9-0.6,1.5-0.6L124.4,385.9L124.4,385.9z M309.9,394.4v-6.5   c0-0.6,0.2-1.1,0.6-1.5l17.7-17.7c0.8-0.8,2.2-0.8,3,0s0.8,2.2,0,3l-17.1,17.1v16.7c0,1.2-0.9,2.1-2.1,2.1c-1.2,0-2.1-0.9-2.1-2.1   v-6.9h-32v6.9c0,1.2-0.9,2.1-2.1,2.1c-1.2,0-2.1-0.9-2.1-2.1v-9.1c0-1.2,0.9-2.1,2.1-2.1h34.1V394.4z M377.4,376.3l9.1-7.3   c0.9-0.7,2.2-0.6,3,0.3c0.7,0.9,0.6,2.2-0.3,3l-9.6,7.8c-0.4,0.3-0.8,0.5-1.3,0.5h-19.8L343.9,395v10.6c0,1.2-0.9,2.1-2.1,2.1   c-1.2,0-2.1-0.9-2.1-2.1v-11.5c0-0.6,0.2-1.1,0.6-1.5l15.7-15.7c0.4-0.4,0.9-0.6,1.5-0.6H377.4L377.4,376.3z M202,385.9l5.1-5.1   c0.4-0.4,0.9-0.6,1.5-0.6h11.6v-9.8c0-1.2,0.9-2.1,2.1-2.1s2.1,0.9,2.1,2.1v11.8c0,1.2-0.9,2.1-2.1,2.1h-12.8L197.9,396v9.6   c0,1.2-0.9,2.1-2.1,2.1s-2.1-0.9-2.1-2.1v-10.5c0-0.6,0.2-1.1,0.6-1.5l4.7-4.7l-4.5-4.5L180,398.9c-0.6,0.6-1.5,0.8-2.3,0.5   s-1.3-1.1-1.3-2v-26.9c0-1.2,0.9-2.1,2.1-2.1s2.1,0.9,2.1,2.1v21.7l12.3-12.3c0.8-0.8,2.2-0.8,3,0L202,385.9L202,385.9z    M54.3,382.8v6.9c0,1.2-0.9,2.1-2.1,2.1H25.8v13.8c0,1.2-0.9,2.1-2.1,2.1s-2.1-0.9-2.1-2.1v-15.9c0-1.2,0.9-2.1,2.1-2.1h26.4v-17.2   c0-1.2,0.9-2.1,2.1-2.1s2.1,0.9,2.1,2.1v8.2h6.8v-8.2c0-1.2,0.9-2.1,2.1-2.1s2.1,0.9,2.1,2.1v10.3c0,1.2-0.9,2.1-2.1,2.1   L54.3,382.8L54.3,382.8z M429.9,374.3l16.7,16.7c0.8,0.8,0.8,2.2,0,3c-0.8,0.8-2.2,0.8-3,0l-17.3-17.3c-0.4-0.4-0.6-0.9-0.6-1.5   v-5.5c0-1.2,0.9-2.1,2.1-2.1s2.1,0.9,2.1,2.1V374.3z" style="fill:#142664;"/>
	<path d="M227.6,304.3c-2.2,0-4,1.8-4,4V339h16.7v-19.4c0-1.6-1.3-2.8-2.8-2.8l0,0c-1.6,0-2.8-1.3-2.8-2.8   c0-1.7,0-3.8,0-5.6c0-2.2-1.8-4-4-4C229.7,304.3,228.6,304.3,227.6,304.3L227.6,304.3z" style="fill:#00E6B3;"/>
	<path d="M140.4,268.4c0-0.7-0.6-1.3-1.3-1.3h-3.8c-0.7,0-1.3,0.6-1.3,1.3v3.8c0,0.7,0.6,1.3,1.3,1.3h3.8   c0.7,0,1.3-0.6,1.3-1.3V268.4z" style="fill:#00E6B3;"/>
</g>
</g></g></g><!--ITEM 5--><g><defs><clipPath id="clip-path-id-viewbox-item-5"><rect x="0.0" y="0.0" width="678.3" height="4.2"/></clipPath></defs><g transform="translate(233.0 2853.0) rotate(0.0 1250.0 7.0) scale(3.685684800235884 3.333333333333333)"><g clip-path="url(#clip-path-id-viewbox-item-5)" transform="translate(-0.0 -0.0)"><path d="M676.1,0H2.1C0.9,0,0,0.9,0,2.1c0,1.2,0.9,2.1,2.1,2.1h674.1c1.2,0,2.1-0.9,2.1-2.1S677.3,0,676.1,0z" style="fill:#142664;"/>
</g></g></g></svg>