<svg xmlns="http://www.w3.org/2000/svg" xmlns:xlink="http://www.w3.org/1999/xlink" width="1280" height="733" viewBox="0 0 1280 733"><defs><clipPath id="b"><rect width="1280" height="733"/></clipPath></defs><g id="a" clip-path="url(#b)"><rect width="1280" height="733" fill="#6a5cc5"/><path d="M33.5,0,67,54H0Z" transform="translate(1123.648 165.488) rotate(60)" fill="#9e9842"/><g transform="translate(763 6)" fill="#5b3131"><path d="M 355.3863830566406 636.0935668945312 C 347.1794128417969 636.0935668945312 338.8397521972656 634.9698486328125 330.5967407226562 632.7532958984375 L 298.7145385742188 624.1801147460938 C 290.8209533691406 622.0575561523438 282.6740112304688 620.9813232421875 274.5 620.9813232421875 C 266.3259887695312 620.9813232421875 258.1790466308594 622.0575561523438 250.2854461669922 624.1801147460938 L 218.4033050537109 632.7532958984375 C 210.16064453125 634.9697265625 201.8177947998047 636.0935668945312 193.6065063476562 636.0935668945312 C 185.229248046875 636.0935668945312 176.9288482666016 634.9279174804688 168.9358520507812 632.6288452148438 C 161.2463073730469 630.4171142578125 153.8431549072266 627.1594848632812 146.9320983886719 622.9464721679688 C 133.4486999511719 614.7271118164062 122.1244964599609 603.0572509765625 114.1837005615234 589.1985473632812 C 110.3336029052734 582.4791259765625 107.3331527709961 575.3336791992188 105.2656478881836 567.9607543945312 C 103.1461029052734 560.4019775390625 102.0170516967773 552.6333618164062 101.9098510742188 544.8705444335938 C 101.7985992431641 536.8106689453125 102.7910003662109 528.7464599609375 104.8594970703125 520.90185546875 C 107.0265502929688 512.6836547851562 110.3922500610352 504.6491088867188 114.8630981445312 497.0214538574219 L 174.726806640625 394.88818359375 C 179.3130035400391 387.0637512207031 182.7274475097656 378.6286010742188 184.8751983642578 369.8169860839844 C 187.6407012939453 358.4708557128906 192.127197265625 348.1051940917969 198.2101440429688 339.008056640625 C 203.928955078125 330.4553527832031 211.0292053222656 323.0553894042969 219.3135528564453 317.0137329101562 C 227.2111053466797 311.2541809082031 236.0572052001953 306.8133544921875 245.6060485839844 303.8146057128906 C 254.9053039550781 300.8942565917969 264.6265869140625 299.4134826660156 274.5 299.4134826660156 C 284.3734130859375 299.4134826660156 294.0947570800781 300.8942565917969 303.3940124511719 303.8146057128906 C 312.9428405761719 306.8133544921875 321.7889404296875 311.2541809082031 329.6864929199219 317.0137329101562 C 337.9708557128906 323.0553894042969 345.071044921875 330.4553527832031 350.7898864746094 339.008056640625 C 356.872802734375 348.1051940917969 361.3593444824219 358.4708557128906 364.1248474121094 369.8169860839844 C 366.2726440429688 378.6285400390625 369.68701171875 387.0637512207031 374.273193359375 394.8882446289062 L 434.136962890625 497.0214538574219 C 438.6072082519531 504.6481323242188 441.972412109375 512.6817016601562 444.13916015625 520.89892578125 C 446.2073059082031 528.7426147460938 447.1994934082031 536.8059692382812 447.088134765625 544.8651123046875 C 446.9808959960938 552.6270751953125 445.8518981933594 560.3951416015625 443.7325134277344 567.953369140625 C 441.6651916503906 575.3258056640625 438.6651000976562 582.4708862304688 434.8154602050781 589.1901245117188 C 426.8746948242188 603.0498657226562 415.5504455566406 614.72119140625 402.0668640136719 622.9421997070312 C 395.1557922363281 627.1558837890625 387.7527465820312 630.4142456054688 380.0632934570312 632.6267700195312 C 372.0704650878906 634.9265747070312 363.7703552246094 636.0929565429688 355.3934936523438 636.0935668945312 C 355.3915100097656 636.0935668945312 355.3883972167969 636.0935668945312 355.3863830566406 636.0935668945312 Z" stroke="none"/><path d="M 274.5 299.9135131835938 C 264.6774597167969 299.9135131835938 255.0065612792969 301.3865356445312 245.755859375 304.2916259765625 C 236.2590026855469 307.2740478515625 227.4616394042969 311.6903076171875 219.6080932617188 317.4177856445312 C 211.371337890625 323.4246826171875 204.3118591308594 330.7822265625 198.6257629394531 339.2859497070312 C 192.575439453125 348.3343505859375 188.112548828125 358.6463012695312 185.3609008789062 369.9354248046875 C 183.2016906738281 378.7940063476562 179.7690124511719 387.2744140625 175.158203125 395.1410522460938 L 115.2944946289062 497.2742309570312 C 110.8465881347656 504.8627319335938 107.4984436035156 512.8551025390625 105.3429870605469 521.029296875 C 103.2860107421875 528.8300170898438 102.2991638183594 536.8490600585938 102.4098510742188 544.8636474609375 C 102.5163879394531 552.5830688476562 103.6392517089844 560.30859375 105.7471008300781 567.82568359375 C 107.8034362792969 575.1590576171875 110.7879028320312 582.2662353515625 114.6175537109375 588.949951171875 C 122.5165405273438 602.7357177734375 133.78076171875 614.3438720703125 147.1923522949219 622.51953125 C 154.0653076171875 626.7092895507812 161.4273986816406 629.9488525390625 169.0740356445312 632.1483154296875 C 177.0220947265625 634.4344482421875 185.2760009765625 635.5935668945312 193.6065063476562 635.5935668945312 C 201.7739562988281 635.5935668945312 210.0731506347656 634.4755249023438 218.2734375 632.2703857421875 L 250.1556091308594 623.697265625 C 258.0914611816406 621.563232421875 266.2821044921875 620.4812622070312 274.5 620.4812622070312 C 282.7178649902344 620.4812622070312 290.9085083007812 621.563232421875 298.8444213867188 623.697265625 L 330.7265930175781 632.2703857421875 C 338.9268188476562 634.4755249023438 347.2260131835938 635.5935668945312 355.3935546875 635.5935668945312 C 363.72314453125 635.5935668945312 371.9763793945312 634.434326171875 379.9239501953125 632.1480712890625 C 387.5700988769531 629.948486328125 394.9317932128906 626.708740234375 401.8045654296875 622.5187377929688 C 415.2158203125 614.342529296875 426.4799499511719 602.7337646484375 434.3792419433594 588.947509765625 C 438.2089538574219 582.2637329101562 441.1935424804688 575.156494140625 443.2500915527344 567.8231201171875 C 445.3582153320312 560.3060302734375 446.4812622070312 552.5806274414062 446.588134765625 544.861328125 C 446.6990966796875 536.846923828125 445.7125854492188 528.8281860351562 443.6559448242188 521.02783203125 C 441.5008544921875 512.85400390625 438.1530456542969 504.8621215820312 433.70556640625 497.2742614746094 L 373.841796875 395.1410522460938 C 369.6835632324219 388.046630859375 366.4835510253906 380.4530639648438 364.3116149902344 372.53271484375 L 364.2850341796875 372.5858154296875 L 363.6390380859375 369.9354248046875 C 360.8873901367188 358.6463012695312 356.4244995117188 348.3343505859375 350.3742065429688 339.2859497070312 C 344.6881103515625 330.7822265625 337.628662109375 323.4246826171875 329.391845703125 317.4177856445312 C 321.538330078125 311.6903076171875 312.7409973144531 307.2740478515625 303.244140625 304.2916259765625 C 293.9934692382812 301.3865356445312 284.3225402832031 299.9135131835938 274.5 299.9135131835938 M 274.5 298.9135131835938 C 313.8042602539062 298.9135131835938 353.1084594726562 322.508544921875 364.610595703125 369.6986083984375 L 364.6106567382812 369.6985473632812 C 366.7454833984375 378.4572143554688 370.1458435058594 386.8577880859375 374.7045288085938 394.6353759765625 L 434.5682983398438 496.7686157226562 C 472.0654296875 560.7423095703125 423.3658142089844 636.5936279296875 355.3935546875 636.5936279296875 C 347.3170776367188 636.5936279296875 338.9755249023438 635.5241088867188 330.4669189453125 633.236083984375 L 298.584716796875 624.6629638671875 C 282.8084106445312 620.4207153320312 266.1915588378906 620.4207153320312 250.4153137207031 624.6629638671875 L 218.5331420898438 633.236083984375 C 210.0294189453125 635.5228271484375 201.6786499023438 636.5936279296875 193.6065063476562 636.5936279296875 C 125.626953125 636.5936279296875 76.9320068359375 560.7467041015625 114.4317626953125 496.7685852050781 L 174.2954406738281 394.6353759765625 C 178.8540954589844 386.8577880859375 182.2544860839844 378.457275390625 184.3893432617188 369.6986083984375 C 195.8915100097656 322.508544921875 235.1957397460938 298.9135131835938 274.5 298.9135131835938 Z" stroke="none" fill="#707070"/></g><path d="M176.489,254.463c17.9-68.481,115.122-68.481,133.022,0h0A68.745,68.745,0,0,0,323.6,281.549L342.559,303.9c43.7,51.511-5.328,128.557-70.5,110.8l-10.985-2.994a68.746,68.746,0,0,0-36.149,0L213.94,414.7c-65.171,17.76-114.194-59.286-70.5-110.8L162.4,281.549a68.745,68.745,0,0,0,14.086-27.086Z" transform="translate(794 177)" fill="rgba(142,102,145,0.74)"/><path d="M339-379" transform="translate(41 379)" fill="none" stroke="#707070" stroke-width="1"/><rect width="746" height="743" transform="translate(0 -10)" fill="#6a5cc5"/><path d="M497.8,354.266l206.146-51.918L497.8,171.025,703.951,65.661,497.8-6.108,703.951-120.634,497.8-189.349,703.951-297.767,497.8-377.171l343.577,79.4L587.9-189.349l253.483,68.715L587.9-6.108,841.382,65.661,587.9,171.025,841.382,290.132,703.951,354.266" transform="translate(44 377.171)" fill="rgba(27,6,167,0.65)" stroke="#707070" stroke-linecap="round" stroke-linejoin="bevel" stroke-width="1"/><ellipse cx="88.5" cy="105.5" rx="88.5" ry="105.5" transform="translate(947 177)" fill="#5b3131"/><g transform="translate(1024 197)" fill="#fff" stroke="#707070" stroke-width="1"><ellipse cx="11" cy="16" rx="11" ry="16" stroke="none"/><ellipse cx="11" cy="16" rx="10.5" ry="15.5" fill="none"/></g><line x1="30" y2="16" transform="translate(1105.5 197.5)" fill="none" stroke="#707070" stroke-width="1"/><g transform="translate(1032 208)" fill="rgba(0,0,0,0.52)" stroke="#707070" stroke-width="1"><ellipse cx="3.5" cy="5" rx="3.5" ry="5" stroke="none"/><ellipse cx="3.5" cy="5" rx="3" ry="4.5" fill="none"/></g><ellipse cx="24.5" cy="70" rx="24.5" ry="70" transform="translate(1114.758 392.415) rotate(50)" fill="#5b3131"/><ellipse cx="24.5" cy="70" rx="24.5" ry="70" transform="translate(1041.347 512.244) rotate(150)" fill="#5b3131"/></g></svg>