<?xml version="1.0" encoding="UTF-8"?><svg version="1.1" xmlns="http://www.w3.org/2000/svg" xmlns:xlink="http://www.w3.org/1999/xlink" viewBox="0 0 1500 1500" width="1500" height="1500" x="0px" y="0px">
    
    
    <!-- ITEM 0 -->
    <g>
        <defs>
            <clipPath id="clip-path-id-viewbox-item-0">
                <rect x="0.0" y="0.0" width="299.86568" height="251.15546"/>
            </clipPath>
        </defs>
        <g transform="translate(724.0 384.0) rotate(0.0 315.0 264.0) scale(2.100940661165359 2.1022835816509824)">
            <g clip-path="url(#clip-path-id-viewbox-item-0)" transform="translate(-0.0 -0.0)">
                
  
  <title>computer2</title>
  <g id="Слой_2-i0" data-name="Слой 2">
    <g id="Capa_1-i0" data-name="Capa 1">
      <g>
        <path d="M293.33161,120.41019c1-14.2,2-28.3,3.2-42.3,1-14.4,4-30.1,3.2-44.5-.6-8.7-5.5-11.1-13.3-12.9-13.3-3-26.7-6.1-40-8.7-26.9-5.5-54-10.1-81.5-11.5-7.9-.4-15.6-.6-23.5-.4-5.9,0-14.4-.6-20.2,1-11.5,3.6-9.3,18.2-10.1,27.7-2.2,28.9-4.2,58-6.5,86.9a635.73834,635.73834,0,0,0-102.5,68.5,6.08461,6.08461,0,0,0,1.8,10.3c26.5,10.3,53.2,20.6,79.7,30.9,25.3,9.7,50.9,19.4,77.6,24.9,21.8,4.4,42.5-9.3,60.9-19.8,20.4-11.7,41-25.5,58.2-41.9,7.3-6.9,8.5-14.2,9.3-23.9C291.03162,150.11018,292.03162,135.41019,293.33161,120.41019Z" style="         fill: #b6c8e8;       "/>
        <path d="M273.63159,44.01018c0-3.4-2-6.1-5.5-6.5-26.5-4-53-8.1-79.5-12.1-12.9-2-25.9-3.8-38.8-5.9-6.3-1-15.2-1.4-16.6,5.7a5.18928,5.18928,0,0,0-1.6,3.8c-.8,16.8-1.6,33.6-2.4,50.3-.4,7.7-.8,15.6-1.2,23.3-.2,5.3-1.8,11.9,0,17,1.4,3.8,4.4,5.9,8.3,7.1,8.1,2.8,16.8,4.7,25.1,6.9,16,4.4,32.1,8.7,48.1,13.1,14.6,4,29.1,9.3,44.1,11.9,11.1,2,16-4.7,17.2-15C274.53162,110.91019,273.63159,77.01018,273.63159,44.01018Z" style="         fill: #57455e;       "/>
        <path d="M242.53162,168.71018q-60.9-18.15-121.9-36.2a6.45253,6.45253,0,0,0-8.3-1,424.17385,424.17385,0,0,0-40.8,30.9c-3.6,3.2-2.2,8.5,1.8,10.3,31.5,14.8,63.5,28.7,95.6,41.9,13.3,5.5,23.7,11.7,35.8,1.4,13.7-11.7,26.5-24.9,39.4-37.2C247.43161,176.21018,247.2316,170.21018,242.53162,168.71018Z" style="         fill: #56597a;       "/>
        <path d="M128.13159,203.31019a87.834,87.834,0,0,0-14.8-7.9c-4.2-1.8-8.5-3.4-12.9-2a4.92945,4.92945,0,0,0-3.4,1.6c-3.8,3.6-9.3,8.5-5.1,14.2,3.2,4.4,11.1,6.5,16,8.7,4.9,2.4,10.3,6.1,15.8,3.2,4.7-2.4,6.3-7.5,6.9-12.3A6.29013,6.29013,0,0,0,128.13159,203.31019Z" style="         fill: #56597a;       "/>
        <path d="M239.33161,63.81019c-27.5-5.7-55-11.3-82.5-17-7.7-1.6-8.5,10.5-1,12.1,27.5,5.7,55,11.3,82.5,17C245.93161,77.61019,247.03162,65.41019,239.33161,63.81019Z" style="         fill: #f087b1;       "/>
        <path d="M242.93161,85.81019c-16.4-3.4-32.8-6.7-49.1-10.1-7.7-1.6-8.5,10.5-1,12.1,16.4,3.4,32.8,6.7,49.1,10.1C249.63159,99.41019,250.43161,87.51018,242.93161,85.81019Z" style="         fill: #74a3d7;       "/>
        <path d="M210.63159,105.11018c-3-.8-6.3-1.4-9.3-2.2s-6.7.2-7.7,3.6c-.8,2.8.4,7.1,3.6,7.7l9.3,2.2c3,.8,6.7-.2,7.7-3.6C215.03162,110.11018,213.83161,105.91019,210.63159,105.11018Z" style="         fill: #f7d16f;       "/>
        <path d="M240.13159,109.71018a33.6187,33.6187,0,0,0-15.4-2.2c-3.2.2-5.5,4-4.9,7.1.6,3.4,3.8,5.1,7.1,4.9a19.5501,19.5501,0,0,1,8.9,1.6,6.0941,6.0941,0,0,0,4.3-11.4Z" style="         fill: #f7d16f;       "/>
        <path d="M234.83161,179.71018c-8.7-2.4-17.2-4.9-25.7-7.5,2.4-2.6,4.7-5.5,7.1-8.1,5.1-5.9-3.6-14.6-8.5-8.5-3.6,4.2-7.3,8.5-11.1,12.7-6.7-2.2-13.1-4.4-19.8-6.7,2-2,3.8-4,5.9-6.1,5.5-5.7-3-14.2-8.5-8.5-3.2,3.4-6.7,6.7-9.9,10.1-8.3-3-16.4-6.3-24.5-9.5a30.76,30.76,0,0,0,2.4-2.6c5.3-5.7-3.2-14.4-8.5-8.5-2,2-3.8,4-5.9,6.1-8.5-3.6-17-7.3-25.3-11.1-7.1-3.2-13.1,7.1-6.1,10.5,7.5,3.4,14.8,6.7,22.2,9.9l-8.9,8.9c-8.3-3.4-16.4-7.1-24.7-10.7-7.1-3.2-13.3,7.3-6.1,10.5,7.1,3,14.2,6.3,21.2,9.3-2.2,2.2-4.7,4.2-6.9,6.5-5.9,5.3,2.8,13.7,8.5,8.5,3.6-3.2,7.1-6.5,10.7-9.7,8.1,3.4,16.2,6.7,24.5,10.1l-4.9,4.9c-5.5,5.7,3,14.2,8.5,8.5,2.8-2.8,5.7-5.7,8.5-8.7,6.7,2.6,13.3,5.3,20,7.9-3,3.2-6.3,6.3-9.3,9.5-5.7,5.5,3,14.2,8.5,8.5,4.4-4.4,8.9-8.9,13.1-13.3,10.9,4,21.8,8.1,32.8,11.9,7.3,2.6,10.5-9.1,3.2-11.7-9.1-3.2-18-6.5-26.9-9.7,3.2-3.4,6.5-7.1,9.7-10.5,10.3,3.2,20.8,6.3,31.3,9.1C239.13159,193.41019,242.33161,181.71018,234.83161,179.71018Zm-88.7-4.1c-8.1-3.2-16-6.5-24.1-9.9,3-2.8,5.9-5.9,8.9-8.9,8.1,3.2,16,6.5,24.3,9.5Zm32.1,12.6c-6.7-2.4-13.3-5.1-20-7.7,3-3,6.1-6.3,9.1-9.3,6.7,2.4,13.3,4.7,20.2,7.1C184.7316,181.5102,181.53162,184.91019,178.2316,188.21018Z" style="         fill: #57455e;       "/>
      </g>
    </g>
  </g>

            </g>
        </g>
    </g>
    
    <!-- ITEM 1 -->
    <g>
        <defs>
            <clipPath id="clip-path-id-viewbox-item-1">
                <rect x="0.0" y="0.0" width="378.18073" height="658.51749"/>
            </clipPath>
        </defs>
        <g transform="translate(148.0 356.0) rotate(0.0 272.0 474.5) scale(1.4384656775082116 1.4411158616303419)">
            <g clip-path="url(#clip-path-id-viewbox-item-1)" transform="translate(-0.0 -0.0)">
                
  
  <title>robot2</title>
  <g id="Слой_2-i1" data-name="Слой 2">
    <g id="Capa_1-i1" data-name="Capa 1">
      <g>
        <path d="M369.04823,264.68538c-11.44969-5.39772-23.71723,7.36052-32.22273,13.24895-12.75822,8.99619-25.68006,17.8288-38.43827,26.825-13.73963-28.46067-26.98857-57.08491-42.03676-84.89132-11.61328-21.59085-26.00716-41.546-50.05155-50.54222-.16357,0-.16357,0-.49068-.16358.49068-27.3157,1.145-55.28568-2.12635-81.94711-1.63567-12.59466-5.23417-27.47926-15.70245-35.8212s-26.33431-7.52408-38.60185-6.37911C126.80536,47.14118,96.709,55.4831,89.18492,79.85459c-4.57985,14.721-2.78066,32.05916-3.10776,47.10733-.49068,15.70245-.98141,31.56845-1.47209,47.10733-41.21893,17.011-60.02915,69.516-70.33386,109.58995A313.81306,313.81306,0,0,0,3.63935,362.66209c-.16357,21.7544-1.47209,51.033,14.88462,67.88034a7.24012,7.24012,0,0,0,11.12254-1.47209c17.5017-27.80641,19.13737-60.6834,21.59088-92.74257,1.96282-25.84358,5.23416-53.65,20.60946-74.75015,4.57986,60.5198.98141,121.2032-4.57986,181.39592-6.21553,66.57183-13.08536,132.98-19.46447,199.38828a7.20585,7.20585,0,0,0,3.59849,6.21553c18.9738,8.01478,38.43827,11.4497,58.72058,9.32334,7.5241-.65425,10.14118-11.77685,1.96283-14.06678-25.84358-6.86983-14.23036-42.03676-9.65045-59.2113,5.39769-21.26373,10.959-42.8546,16.35671-64.28185,8.01478-31.24133,15.866-63.13691,27.31572-93.23325a1655.63741,1655.63741,0,0,1-9.48687,216.7264c-.16358,2.78066,2.28993,6.37911,5.23417,6.86984a375.14554,375.14554,0,0,0,64.93615,3.5985c6.86984-.16358,9.65045-9.48687,3.5985-13.24895-24.37149-14.39388-14.39388-60.51982-12.26753-83.25564,3.27134-35.82118,9.32334-71.31526,15.3753-106.64576,8.34193-48.41587,17.011-96.99527,21.59087-145.7383a199.11571,199.11571,0,0,0,10.14118,19.46448c6.21553,10.63186,13.576,26.33431,27.31573,27.97,12.10395,1.4721,25.84358-6.70626,36.31191-11.61327a227.67567,227.67567,0,0,0,39.58326-24.37149c9.65045-7.36052,22.73582-16.19313,27.97-27.80641C380.17083,280.55139,378.04442,269.26527,369.04823,264.68538Z" style="         fill: #56597a;       "/>
        <path d="M205.31761,92.77637a5.55231,5.55231,0,0,0-3.27134-4.74345c-1.145-1.47211-2.78066-2.28994-5.39769-2.12638-14.06679,1.47211-27.97,2.61707-42.03677,4.08918-12.10395,1.145-25.18932.9814-36.80259,4.25274-16.19314,4.57987-19.62806,23.88079-4.57986,32.71343,8.34193,4.74344,19.13737,4.08918,28.46066,3.76205,13.57605-.49071,26.98857-1.145,40.7282-1.63567,7.03336-.16358,19.13737,1.63567,23.22655-5.88843C210.06105,115.18507,206.46255,101.11829,205.31761,92.77637Z" style="         fill: #f7d16f;       "/>
        <path d="M204.99046,297.88951c-.16358-17.82881-.49068-35.33051-.65426-53.15931,0-4.25275-3.27134-6.70626-7.03337-7.03339-16.52028-2.12638-33.2041-4.57988-50.05154-4.08918-8.83261.16358-27.47925-.98141-32.877,8.01478-2.28993,3.762-1.63567,8.34193-1.4721,12.26753.16358,5.23415.49068,10.46829.65426,15.70245.16358,20.60947,1.145,41.21891,3.10777,61.82837v1.30852c.16357,3.27134.65425,6.37911.98141,9.48687.49068,4.08918,2.78066,6.86984,7.03336,7.03337,16.35671.98141,32.54985,1.145,48.90655.65425,10.46829-.16357,23.71723.16358,29.11493-10.46828C208.589,328.313,204.99046,310.48419,204.99046,297.88951Z" style="         fill: #f7d16f;       "/>
        <path d="M130.07675,458.34884,73.15542,445.09989c-9.65045-2.28993-13.73963,11.4497-4.08918,13.73963,18.97379,4.57986,37.94759,8.83261,56.92133,13.24894C135.638,474.21482,139.89077,460.47519,130.07675,458.34884Z" style="         fill: #57455e;       "/>
        <path d="M115.84639,508.56391c-15.3753-4.08918-30.75059-8.01478-46.453-11.77685-9.32335-2.28993-13.24895,11.44969-4.08918,13.73962,15.37529,4.08918,30.75059,8.01478,46.453,11.77685C121.40766,524.75709,125.16973,511.01741,115.84639,508.56391Z" style="         fill: #57455e;       "/>
        <path d="M103.41528,557.30693c-13.08537-2.28993-26.00716-4.74344-39.09252-6.86984-8.9962-1.63567-12.75822,12.104-3.762,13.73963,13.08537,2.28993,26.00716,4.74343,39.09253,6.86984C108.48587,572.68223,112.41147,558.9426,103.41528,557.30693Z" style="         fill: #57455e;       "/>
        <path d="M93.43768,612.75617H55.81725c-9.32335,0-9.32335,14.23035,0,14.23035H93.43768C102.43387,626.98652,102.43387,612.75617,93.43768,612.75617Z" style="         fill: #57455e;       "/>
        <path d="M194.195,611.44765a141.75542,141.75542,0,0,0-53.15931-1.96283c-8.99619,1.145-7.03336,15.3753,1.96283,14.06678a138.4952,138.4952,0,0,1,49.2337,1.96283C201.22843,627.64078,203.19121,613.41042,194.195,611.44765Z" style="         fill: #57455e;       "/>
        <path d="M193.70434,564.3403a301.96324,301.96324,0,0,0-44.16312-5.88843c-9.65045-.65426-9.65045,13.57605,0,14.23036a298.69386,298.69386,0,0,1,40.07394,5.39769C199.102,580.04275,203.19121,566.4667,193.70434,564.3403Z" style="         fill: #57455e;       "/>
        <path d="M198.61135,506.1104a199.09129,199.09129,0,0,0-46.28947-2.61708c-9.65045.65425-9.9776,14.88461,0,14.23035A182.309,182.309,0,0,1,194.52217,519.85C204.17262,521.48575,208.09822,507.74607,198.61135,506.1104Z" style="         fill: #57455e;       "/>
        <path d="M206.299,448.37123a366.8593,366.8593,0,0,0-53.65,1.145c-9.48687.98142-9.65045,15.21172,0,14.23036a366.37525,366.37525,0,0,1,53.65-1.145C215.94947,463.09227,215.94947,448.86192,206.299,448.37123Z" style="         fill: #57455e;       "/>
        <path d="M279.90417,266.64818c-11.61328,14.721-23.88081,28.62424-36.8026,42.20029-.98141-16.35671-1.96282-32.71342-3.10776-48.90655a7.302,7.302,0,0,0,8.01477-2.78063,105.471,105.471,0,0,1,20.11874-21.59086c3.10776-2.28993,2.28993-7.52409,0-9.9776-2.78066-3.10776-7.03337-2.28993-9.97761,0A100.452,100.452,0,0,0,239.01234,245.548c-1.47209-19.13734-3.10776-38.11114-4.74343-57.412-.65426-8.99619-15.21172-9.32332-14.23036,0,3.762,40.72819,6.70626,81.78354,8.99619,122.51174.49068,6.70626,7.8512,8.34193,11.77685,5.39769,1.47209,4.57986,7.36052,7.85121,11.77685,3.27135,13.249-13.73963,25.68006-27.97,37.45686-42.85458C295.60662,269.42884,285.629,259.45124,279.90417,266.64818Z" style="         fill: #57455e;       "/>
        <path d="M72.01043,192.87944c0-9.32332-14.23036-9.32332-14.23036,0a565.68419,565.68419,0,0,1-3.762,66.5718A141.14466,141.14466,0,0,1,34.39,243.58524c-6.70626-6.37911-16.52029,3.59847-9.97761,9.9776a160.587,160.587,0,0,0,31.24133,23.3901c5.23417,3.10776,9.9776-1.145,10.63186-5.72485a10.12693,10.12693,0,0,0,1.145-3.10776A578.91954,578.91954,0,0,0,72.01043,192.87944Z" style="         fill: #57455e;       "/>
        <path d="M54.01805,294.12746a191.60377,191.60377,0,0,1-35.98476-11.4497c-8.01478-3.59847-11.61328,10.14116-3.59847,13.73963a192.14663,192.14663,0,0,0,35.98473,11.44967C59.08859,309.66636,62.52351,295.92671,54.01805,294.12746Z" style="         fill: #57455e;       "/>
        <path d="M48.2932,324.87808c-12.59469-.65426-25.18932-1.4721-37.62043-2.12635-9.32332-.49069-8.99619,13.73962,0,14.23035,12.59468.65426,25.18932,1.4721,37.62043,2.12636C57.61649,339.59912,57.61649,325.36876,48.2932,324.87808Z" style="         fill: #57455e;       "/>
        <path d="M44.04045,365.4427a135.55979,135.55979,0,0,1-37.29331.65426c-8.99619-.98142-8.99619,13.24894,0,14.23035a150.22352,150.22352,0,0,0,41.05533-1.145C56.96224,377.71023,53.03664,363.9706,44.04045,365.4427Z" style="         fill: #57455e;       "/>
        <path d="M291.51744,297.23525c-10.63186,15.866-20.60946,32.22274-29.93276,48.90655-4.57986,8.01478,7.8512,15.21172,12.26753,7.03337,9.32335-16.52029,19.13737-32.877,29.93276-48.90656C308.85556,296.74454,296.588,289.54758,291.51744,297.23525Z" style="         fill: #57455e;       "/>
        <path d="M336.17129,325.36876c-2.28993-14.23036-4.57986-18.64664-6.86984-32.877-1.47209-8.99619-15.21172-5.23414-13.73963,3.762,2.28993,14.23033,4.57986,18.64667,6.86984,32.877C324.06728,338.127,337.64338,334.365,336.17129,325.36876Z" style="         fill: #57455e;       "/>
        <path d="M367.73972,302.14226l-19.46448-31.24132c-4.74343-7.85123-17.011-.65426-12.26753,7.03339l19.46447,31.2413C360.3792,317.02688,372.64673,309.99346,367.73972,302.14226Z" style="         fill: #57455e;       "/>
        <path d="M138.74578,103.57179c-3.762-3.59847-10.14118-3.762-13.73962.16358a7.53276,7.53276,0,0,0-1.63567,7.36052c0,.65426.16357,1.47209.16357,1.9628,1.4721,5.72485,8.50551,8.01478,13.24895,4.907C141.69,114.69436,142.99854,107.82455,138.74578,103.57179Z" style="         fill: #57455e;       "/>
        <path d="M198.93845,102.26325A8.67482,8.67482,0,0,0,193.05,95.22986a8.30526,8.30526,0,0,0-8.34193,1.9628c-.16358,0-.16358.16358-.49068.16358a8.79317,8.79317,0,0,0-4.25276,7.36052c-.16358,5.88842,5.88843,10.46828,11.61328,8.83261A10.54533,10.54533,0,0,0,198.93845,102.26325Z" style="         fill: #57455e;       "/>
        <path d="M205.48114,158.53035c-38.60185,3.10776-77.20369,5.72485-116.13264,7.85122-8.99619.49071-9.32334,14.721,0,14.23033,38.60185-2.12637,77.53079-4.74343,116.13264-7.85122C214.47733,171.94284,214.80448,157.71251,205.48114,158.53035Z" style="         fill: #57455e;       "/>
        <path d="M161.97233,1.34236c-14.39388,10.959-23.063,26.3343-23.39007,44.49024-.16358,9.32332,14.06678,9.32332,14.23035,0,.49068-12.59466,6.21553-24.69863,16.35671-32.22271C176.36622,8.21218,169.16927-4.05535,161.97233,1.34236Z" style="         fill: #57455e;       "/>
        <path d="M100.30752,254.05352c-3.5985-3.59847-9.97761-4.57988-14.23036-1.63567a7.08729,7.08729,0,0,0-3.27134,4.25275c-1.145,3.76205.49068,8.50549,1.63567,10.14116a10.05721,10.05721,0,0,0,15.37529,2.12638A10.28173,10.28173,0,0,0,100.30752,254.05352Z" style="         fill: #f087b1;       "/>
        <path d="M105.051,297.72593c-.98141-3.27134-3.27134-6.37911-6.70626-6.86981a13.68111,13.68111,0,0,0-11.4497,4.25275,11.32874,11.32874,0,0,0-2.61708,9.32332,10.42893,10.42893,0,0,0,13.24895,7.03337C103.41528,309.66636,106.35952,303.28723,105.051,297.72593Z" style="         fill: #f087b1;       "/>
        <path d="M102.43387,318.00824c-10.63186-3.10776-13.73963,7.03337-14.23036,9.48687-1.47209,6.21553,3.10777,11.61328,9.32335,11.77685a10.71631,10.71631,0,0,0,10.63186-8.01478C109.46728,326.02307,107.34088,319.48038,102.43387,318.00824Z" style="         fill: #f087b1;       "/>
        <path d="M199.75629,261.08691c-3.27134-4.57988-6.86984-12.10395-13.24894-12.75824-6.21553-.4907-9.97761,4.907-14.23036,8.83262-3.5985-4.57989-5.3977-10.63187-13.249-8.99619-1.96282.4907-3.59849,1.9628-4.907,2.78063a31.6156,31.6156,0,0,0-5.72485,5.72485,14.749,14.749,0,0,0-1.63567,1.47209c-3.27134-3.59847-5.23417-8.83261-10.46828-9.65045-7.5241-1.47209-12.75822,7.85123-16.84739,12.59467-6.21553,6.86981,4.08917,16.84741,9.9776,9.9776,1.145-1.4721,4.25275-3.762,5.39769-5.72485,2.28993,3.10777,5.23417,6.37911,8.50551,8.01478,6.37911,3.10776,11.61328-1.145,15.21172-6.37911.65426-1.145,1.96283-1.9628,2.28993-2.61708.65426,1.145,1.145,2.28993,1.63567,3.10776,1.96283,2.28993,4.25276,5.39772,7.36052,5.88843,3.10777.65426,5.88843-.65426,8.34193-2.28993,5.3977-3.762,4.74344-8.83261,9.32335-2.61708C192.72292,275.808,205.31761,268.77456,199.75629,261.08691Z" style="         fill: #74a3d7;       "/>
        <path d="M199.75629,293.80033c-3.27134-4.57988-6.86984-12.104-13.24894-12.75824-6.21553-.4907-9.97761,4.907-14.23036,8.83261-3.5985-4.57988-5.3977-10.63186-13.249-8.99619-1.96282.49071-3.59849,1.9628-4.907,2.78064a31.6156,31.6156,0,0,0-5.72485,5.72485,14.748,14.748,0,0,0-1.63567,1.47209c-3.27134-3.59847-5.23417-8.83261-10.46828-9.65045-7.5241-1.47209-12.75822,7.85123-16.84739,12.59466-6.21553,6.86982,4.08917,16.84742,9.9776,9.97758,1.145-1.47209,4.25275-3.762,5.39769-5.72485,2.28993,3.10777,5.23417,6.37911,8.50551,8.01478,6.37911,3.10777,11.61328-1.145,15.21172-6.3791.65426-1.145,1.96283-1.9628,2.28993-2.61709.65426,1.145,1.145,2.28993,1.63567,3.10777,1.96283,2.28993,4.25276,5.39769,7.36052,5.88842,3.10777.65426,5.88843-.65426,8.34193-2.28993,5.3977-3.762,4.74344-8.83261,9.32335-2.61708C192.72292,308.35779,205.31761,301.488,199.75629,293.80033Z" style="         fill: #74a3d7;       "/>
        <path d="M199.75629,326.51375c-3.27134-4.57986-6.86984-12.104-13.24894-12.75821-6.21553-.49069-9.97761,4.907-14.23036,8.83261-3.5985-4.57986-5.3977-10.63186-13.249-8.99619-1.96282.49068-3.59849,1.96282-4.907,2.78066a31.61624,31.61624,0,0,0-5.72485,5.72485,14.746,14.746,0,0,0-1.63567,1.47209c-3.27134-3.59849-5.23417-8.83261-10.46828-9.65045-7.5241-1.47209-12.75822,7.8512-16.84739,12.59469-6.21553,6.86984,4.08917,16.84739,9.9776,9.9776,1.145-1.47209,4.25275-3.762,5.39769-5.72485,2.28993,3.10777,5.23417,6.37911,8.50551,8.01478,6.37911,3.10777,11.61328-1.145,15.21172-6.37911.65426-1.145,1.96283-1.96282,2.28993-2.61708.65426,1.145,1.145,2.28993,1.63567,3.10777,1.96283,2.28992,4.25276,5.39769,7.36052,5.88842,3.10777.65426,5.88843-.65426,8.34193-2.28993,5.3977-3.762,4.74344-8.83261,9.32335-2.61708C192.72292,341.07121,205.31761,333.87427,199.75629,326.51375Z" style="         fill: #74a3d7;       "/>
      </g>
    </g>
  </g>

            </g>
        </g>
    </g>
    
    <!-- ITEM 2 -->
    <g>
        <defs>
            <clipPath id="clip-path-id-viewbox-item-2">
                <rect x="0.0" y="0.0" width="107.91161" height="89.52527"/>
            </clipPath>
        </defs>
        <g transform="translate(644.0 432.0) rotate(309.413884035541 114.5 94.5) scale(2.1221071578859774 2.1111357720563144)">
            <g clip-path="url(#clip-path-id-viewbox-item-2)" transform="translate(-0.0 -0.0)">
                
  
  <title>wifi2</title>
  <g id="Слой_2-i2" data-name="Слой 2">
    <g id="Capa_1-i2" data-name="Capa 1">
      <g>
        <path d="M78.7336,72.65485a9.72728,9.72728,0,0,0-10.1-6.9.60119.60119,0,0,0-.4.1h-.1a11.87862,11.87862,0,0,0-8.9,21c6.6,5.6,16,1.7,18.6-5.3A10.14255,10.14255,0,0,0,78.7336,72.65485Z" style="         fill: #f087b1;       "/>
        <path d="M95.8336,49.25486c-10-6.6-21.9-5.5-33.1-4.1-12.1,1.5-22.7,5.3-32.1,13.3-4.2,3.5,1.8,9.4,5.9,5.9,8.3-6.9,17.9-9.8,28.5-11.1,9-1.1,18.6-2.1,26.5,3.2C96.13362,59.45486,100.3336,52.15486,95.8336,49.25486Z" style="         fill: #f087b1;       "/>
        <path d="M102.3336,32.85486c-14.2-9.4-31.4-12.3-48.1-10.5-15.3,1.7-32.2,5.9-42.3,18.4-3.4,4.2,2.5,10.2,5.9,5.9,9.1-11.4,24.8-15,38.7-16.1,14.7-1.3,29.2,1.3,41.6,9.5C102.63362,43.05486,106.8336,35.75486,102.3336,32.85486Z" style="         fill: #f087b1;       "/>
        <path d="M105.7336,12.55486c-8.5-3.9-14.2-10.9-24-12.2-9.3-1.1-19.1.6-28.3,1.8-19.3,2.7-38.7,8.3-52.3,23.1-3.6,3.9,2.2,10,5.9,5.9,12.3-13.5,29.9-18.4,47.4-20.9,8.3-1.1,17.2-2.8,25.5-2,8.8,1,13.9,7.7,21.4,11.2C106.43361,22.05486,110.63362,14.75486,105.7336,12.55486Z" style="         fill: #f087b1;       "/>
      </g>
    </g>
  </g>

            </g>
        </g>
    </g>
    
</svg>